<svg width="332" height="161" viewBox="0 0 332 161" fill="none" xmlns="http://www.w3.org/2000/svg">
<path d="M46.9854 10.2663C42.4545 4.60507 34.8226 3.15789 29.9723 7.03966C28.0282 8.62737 26.7331 10.8724 26.332 13.3502C23.8266 13.1718 21.3461 13.9444 19.3851 15.5138C17.4241 17.0832 16.1268 19.3342 15.7519 21.8177C13.2462 21.6668 10.7719 22.4386 8.79637 23.9874C3.94616 27.8691 3.68582 35.6327 8.21666 41.294C12.2719 46.3609 18.8099 48.0488 23.6153 45.5652L24.1053 47.7377C24.1328 47.8601 24.191 47.9735 24.2744 48.0672C24.3578 48.1608 24.4636 48.2318 24.582 48.2733C24.7003 48.3147 24.8273 48.3254 24.951 48.3043C25.0746 48.2832 25.1908 48.2309 25.2887 48.1525L26.1079 47.4968C26.6775 49.4481 28.3162 53.2258 32.7018 54.8748C37.7816 56.7846 38.5974 62.0593 38.6293 62.2811C38.6406 62.3791 38.6714 62.4739 38.7199 62.5598C38.7684 62.6457 38.8336 62.7211 38.9116 62.7814C38.9897 62.8418 39.079 62.886 39.1743 62.9113C39.2697 62.9366 39.3691 62.9426 39.4668 62.929C39.5646 62.9153 39.6585 62.8823 39.7433 62.8317C39.828 62.7812 39.9018 62.7143 39.9603 62.6348C40.0188 62.5554 40.0608 62.465 40.0839 62.3691C40.1069 62.2732 40.1106 62.1736 40.0946 62.0762C40.058 61.8175 39.1393 55.7148 33.2228 53.49C28.8914 51.8614 27.6609 47.789 27.372 46.4852L28.7607 45.3737C28.8587 45.2954 28.9351 45.1935 28.9828 45.0775C29.0305 44.9615 29.0479 44.8352 29.0334 44.7107C29.0189 44.5861 28.9729 44.4672 28.8997 44.3654C28.8266 44.2635 28.7287 44.1818 28.6153 44.1282L26.6035 43.1748C27.7826 41.7481 28.5644 40.0357 28.8703 38.2104C30.7158 38.3141 32.5559 37.9278 34.204 37.0909L34.6933 39.2633C34.7209 39.3857 34.7791 39.499 34.8625 39.5927C34.9459 39.6864 35.0518 39.7574 35.1701 39.7989C35.2885 39.8404 35.4155 39.8511 35.5391 39.83C35.6628 39.8089 35.7791 39.7568 35.877 39.6784L36.6963 39.0227C37.2661 40.9737 38.9048 44.7514 43.2905 46.4004C48.3699 48.3104 49.186 53.5849 49.2179 53.8067C49.2293 53.9047 49.2601 53.9995 49.3086 54.0854C49.3571 54.1713 49.4222 54.2467 49.5003 54.3071C49.5783 54.3674 49.6676 54.4116 49.763 54.4369C49.8583 54.4623 49.9578 54.4683 50.0555 54.4546C50.1532 54.4409 50.2472 54.4079 50.3319 54.3574C50.4167 54.3068 50.4905 54.2399 50.5489 54.1604C50.6074 54.081 50.6494 53.9906 50.6725 53.8947C50.6956 53.7988 50.6992 53.6992 50.6832 53.6018C50.6467 53.3431 49.7279 47.2404 43.8114 45.0156C39.4804 43.3868 38.2496 39.3146 37.9609 38.0105L39.3494 36.8993C39.4473 36.821 39.5237 36.719 39.5714 36.6029C39.619 36.4869 39.6364 36.3607 39.6218 36.2361C39.6072 36.1115 39.5612 35.9926 39.4881 35.8907C39.415 35.7888 39.3171 35.7072 39.2037 35.6535L37.1913 34.7C38.3691 33.2754 39.1491 31.5646 39.4523 29.7412C41.3004 29.8428 43.1425 29.4551 44.7928 28.6174L45.2823 30.7892C45.3097 30.9116 45.3679 31.025 45.4513 31.1186C45.5347 31.2123 45.6406 31.2833 45.7589 31.3248C45.8773 31.3662 46.0043 31.3769 46.1279 31.3558C46.2515 31.3347 46.3678 31.2824 46.4656 31.204L47.2849 30.5483C47.8547 32.4994 49.4935 36.277 53.8791 37.926C58.9586 39.8361 59.7747 45.1105 59.8066 45.3324C59.8179 45.4304 59.8487 45.5251 59.8972 45.611C59.9457 45.697 60.0109 45.7723 60.0889 45.8327C60.167 45.893 60.2563 45.9372 60.3516 45.9625C60.447 45.9879 60.5464 45.9939 60.6441 45.9802C60.7418 45.9666 60.8358 45.9335 60.9206 45.883C61.0053 45.8325 61.0791 45.7655 61.1376 45.686C61.1961 45.6066 61.2381 45.5162 61.2611 45.4203C61.2842 45.3244 61.2878 45.2248 61.2719 45.1275C61.2356 44.8685 60.3166 38.766 54.4001 36.5413C50.0671 34.914 48.8366 30.8416 48.5479 29.5375L49.9364 28.4263C50.0343 28.348 50.1108 28.246 50.1585 28.13C50.2062 28.014 50.2236 27.8878 50.209 27.7632C50.1945 27.6386 50.1485 27.5198 50.0754 27.4179C50.0022 27.316 49.9044 27.2344 49.791 27.1808L47.7783 26.2269C51.2548 22.0822 51.0406 15.3333 46.9854 10.2663ZM9.37147 40.3697C5.35055 35.3456 5.50686 28.5146 9.7206 25.1422C11.3905 23.8406 13.4741 23.1858 15.5883 23.2981C15.468 26.7574 16.6113 30.1423 18.8046 32.8201C20.9371 35.5474 23.9897 37.4048 27.3919 38.0452C27.0385 40.1329 25.9424 42.0226 24.3055 43.3658C20.0917 46.7382 13.3927 45.3942 9.37147 40.3697ZM26.9126 44.9583L25.288 46.2586L24.9446 44.7352C25.0402 44.6646 25.1363 44.5953 25.2297 44.5206C25.3231 44.4459 25.4129 44.368 25.503 44.2899L26.9126 44.9583ZM37.5006 36.4844L35.876 37.7847L35.5326 36.2614C35.6282 36.1908 35.7243 36.1215 35.8177 36.0467C35.911 35.972 35.9997 35.8935 36.0895 35.8156L37.5006 36.4844ZM34.8934 34.8919C30.68 38.264 23.9806 36.9203 19.9595 31.8959C15.9383 26.8715 16.0952 20.0404 20.3086 16.6683C24.522 13.2962 31.2217 14.6403 35.2426 19.6644C39.2635 24.6885 39.1069 31.5198 34.8934 34.8919ZM48.0894 28.0116L46.4647 29.3118L46.1215 27.79C46.2175 27.7192 46.3134 27.6483 46.4064 27.5739C46.4995 27.4994 46.5885 27.4206 46.6783 27.3428L48.0894 28.0116ZM45.4814 26.4181C43.8122 27.7209 41.7283 28.3764 39.6138 28.2637C39.7345 24.8038 38.5911 21.4184 36.3974 18.7401C34.265 16.0129 31.2123 14.1555 27.8101 13.5151C28.1635 11.4273 29.2597 9.53766 30.8966 8.19447C35.1103 4.82209 41.8096 6.16642 45.8306 11.1905C49.8515 16.2146 49.6952 23.0457 45.4814 26.4181Z" fill="black"/>
<path d="M31.5263 20.7663C31.411 20.6905 31.2767 20.6485 31.1388 20.645C31.0008 20.6415 30.8646 20.6766 30.7456 20.7465L27.7719 22.4909L24.6494 21.031C24.5244 20.9724 24.3856 20.95 24.2485 20.9663C24.1115 20.9826 23.9817 21.037 23.874 21.1232C23.7662 21.2095 23.6847 21.3241 23.6388 21.4543C23.5929 21.5844 23.5843 21.7249 23.614 21.8596L24.3543 25.2261L22.0007 27.7453C21.9064 27.8461 21.8423 27.9713 21.8155 28.1067C21.7887 28.242 21.8003 28.3822 21.849 28.5113C21.8977 28.6404 21.9816 28.7534 22.0911 28.8373C22.2007 28.9212 22.3315 28.9729 22.4688 28.9863L25.8997 29.322L27.5678 32.339C27.6346 32.4597 27.7338 32.5594 27.8543 32.6267C27.9747 32.694 28.1116 32.7263 28.2495 32.7199C28.3873 32.7135 28.5206 32.6686 28.6343 32.5904C28.748 32.5122 28.8375 32.4037 28.8927 32.2772L30.2715 29.1169L33.6572 28.4641C33.7927 28.4379 33.9181 28.3744 34.0193 28.2806C34.1206 28.1868 34.1936 28.0666 34.23 27.9335C34.2665 27.8004 34.265 27.6598 34.2257 27.5275C34.1864 27.3952 34.1109 27.2765 34.0077 27.1849L31.4296 24.8963L31.8536 21.4749C31.8704 21.338 31.8487 21.1992 31.7909 21.074C31.7331 20.9488 31.6414 20.8423 31.5263 20.7663ZM29.9139 25.1004C29.8995 25.2194 29.9142 25.34 29.9567 25.452C29.9992 25.5641 30.0683 25.6641 30.158 25.7435L31.9062 27.2955L29.6114 27.7388C29.4936 27.7616 29.3831 27.8127 29.2894 27.8877C29.1957 27.9627 29.1216 28.0593 29.0736 28.1692L28.1365 30.3124L27.0053 28.2667C26.9475 28.1618 26.865 28.0725 26.765 28.0064C26.665 27.9404 26.5505 27.8996 26.4313 27.8876L24.1049 27.6597L25.701 25.9519C25.7829 25.8643 25.8421 25.7581 25.8738 25.6425C25.9055 25.5269 25.9086 25.4054 25.8829 25.2883L25.3805 23.0056L27.498 23.9957C27.6065 24.0465 27.7258 24.0701 27.8455 24.0645C27.9653 24.0589 28.0818 24.0243 28.1852 23.9637L30.2013 22.7805L29.9139 25.1004Z" fill="black"/>
<path d="M331.131 73.5689C304.533 59.5187 235.03 42.7759 169.806 88.2068C104.583 133.638 69.2333 87.4144 59.7116 58.624" stroke="black" stroke-width="0.8" stroke-dasharray="10 10"/>
</svg>
