<svg width="62" height="62" viewBox="0 0 62 62" fill="none" xmlns="http://www.w3.org/2000/svg">
<path d="M47.0847 6.72085C41.2995 2.87871 34.4505 1.33132 27.8037 2.06106C21.447 2.75564 15.2838 5.54272 10.413 10.4135C5.54221 15.2843 2.75512 21.4476 2.06055 27.8043C1.12859 36.2798 3.91567 45.0894 10.413 51.5868C16.9103 58.0841 25.72 60.8712 34.1955 59.9392C40.5522 59.2447 46.7155 56.4576 51.5863 51.5868C56.4571 46.716 59.2442 40.5527 59.9387 34.196C60.7564 26.7755 58.7254 19.1089 53.8458 12.9544C53.6084 12.6555 53.3622 12.3566 53.1073 12.0576" stroke="#200D46" stroke-width="2.6322" stroke-miterlimit="10"/>
<path d="M59.8684 34.1258C54.5932 37.6514 48.1486 26.3888 40.9039 33.6334C34.8286 39.1372 32.3317 46.4434 30.7491 52.4133C30.582 53.0551 30.415 53.6881 30.2655 54.2948L29.993 55.4641" stroke="#200D46" stroke-width="2.6322" stroke-miterlimit="10"/>
<path d="M2.20123 27.945C7.45889 21.4829 19.2842 23.5666 26.1333 16.7175C30.8106 11.6357 29.5446 9.42892 29.8611 5.94727" stroke="#200D46" stroke-width="2.6322" stroke-miterlimit="10"/>
<path d="M51.7269 51.4463C51.683 51.4902 51.6303 51.543 51.5863 51.587C51.5335 51.6397 51.4808 51.6925 51.428 51.7364" stroke="#200D46" stroke-width="2.6322" stroke-miterlimit="10"/>
<path d="M48.4563 54.3037L48.4651 54.2949" stroke="#200D46" stroke-width="2.6322" stroke-miterlimit="10"/>
<path d="M53.1073 12.0574C53.1073 12.0574 43.3481 9.48131 33.5714 19.5746C15.6531 38.0731 12.5495 53.5208 12.5495 53.5208" stroke="#200D46" stroke-width="2.6322" stroke-miterlimit="10" stroke-linecap="round"/>
<path d="M10.413 10.4138C10.413 10.4138 21.3328 9.92138 34.1252 22.4325C53.5117 41.3882 51.5863 51.587 51.5863 51.587" stroke="#200D46" stroke-width="2.6322" stroke-miterlimit="10"/>
</svg>
