<svg width="76" height="52" viewBox="0 0 76 52" fill="none" xmlns="http://www.w3.org/2000/svg">
<path d="M2.21568 37.8289V2.23535H30.3106C34.5576 2.23535 37.9917 5.67776 37.9917 9.91646V51.7644C37.9917 47.5257 34.5576 44.0833 30.3106 44.0833H2.21568" stroke="#200D46" stroke-width="2.6322" stroke-miterlimit="10" stroke-linecap="square"/>
<path d="M73.776 2.23535H45.6811C41.4341 2.23535 38 5.67776 38 9.91646V51.7644C38 47.5257 41.4341 44.0833 45.6811 44.0833H73.776V7.36991" stroke="#200D46" stroke-width="2.6322" stroke-miterlimit="10" stroke-linecap="square"/>
<path d="M28.5438 14.0556V18.9497H11.6719V9.16162H28.5438" stroke="#200D46" stroke-width="2.6322" stroke-miterlimit="10" stroke-linecap="square"/>
<path d="M11.6719 24.499H28.5438" stroke="#200D46" stroke-width="2.6322" stroke-miterlimit="10" stroke-linecap="square"/>
<path d="M21.7336 30.2725H28.5438" stroke="#200D46" stroke-width="2.6322" stroke-miterlimit="10" stroke-linecap="square"/>
<path d="M11.6719 30.2725H15.7198" stroke="#200D46" stroke-width="2.6322" stroke-miterlimit="10" stroke-linecap="square"/>
<path d="M11.6719 36.0537H19.2037" stroke="#200D46" stroke-width="2.6322" stroke-miterlimit="10" stroke-linecap="square"/>
<path d="M47 24.499H63.8719" stroke="#200D46" stroke-width="2.6322" stroke-miterlimit="10" stroke-linecap="square"/>
<path d="M61.6737 18.7173H63.8719" stroke="#200D46" stroke-width="2.6322" stroke-miterlimit="10" stroke-linecap="square"/>
<path d="M47 18.7173H55.6599" stroke="#200D46" stroke-width="2.6322" stroke-miterlimit="10" stroke-linecap="square"/>
<path d="M51.0065 30.2725H47" stroke="#200D46" stroke-width="2.6322" stroke-miterlimit="10" stroke-linecap="square"/>
<path d="M63.8719 30.2725H57.0203" stroke="#200D46" stroke-width="2.6322" stroke-miterlimit="10" stroke-linecap="square"/>
<path d="M47 12.9443H63.8719" stroke="#200D46" stroke-width="2.6322" stroke-miterlimit="10" stroke-linecap="square"/>
<path d="M47 36.0537H56.3401" stroke="#200D46" stroke-width="2.6322" stroke-miterlimit="10" stroke-linecap="square"/>
<path d="M2 44.3486L5.6 48.3219H32.5087C32.5087 48.3219 37.9917 47.9735 37.9917 51.7643" stroke="#200D46" stroke-width="2.6322" stroke-miterlimit="10"/>
<path d="M74 44.3486L70.4 48.3219H43.4913C43.4913 48.3219 38.0083 47.9735 38.0083 51.7643" stroke="#200D46" stroke-width="2.6322" stroke-miterlimit="10"/>
</svg>
