<svg width="41" height="41" viewBox="0 0 41 41" fill="none" xmlns="http://www.w3.org/2000/svg">
<path d="M40.5468 28.4993L39.9877 27.3814V10.0288C39.9869 9.366 39.7233 8.73056 39.2546 8.26188C38.7859 7.7932 38.1505 7.52957 37.4877 7.52881H36.2377V6.27881C36.2377 5.61577 35.9743 4.97988 35.5054 4.51104C35.0366 4.0422 34.4007 3.77881 33.7377 3.77881C33.0746 3.77881 32.4387 4.0422 31.9699 4.51104C31.5011 4.97988 31.2377 5.61577 31.2377 6.27881V7.52881C31.0719 7.52881 30.9129 7.59466 30.7957 7.71187C30.6785 7.82908 30.6127 7.98805 30.6127 8.15381V33.7788C30.6187 33.8867 30.6467 33.9922 30.6951 34.0889L33.1127 38.3197V39.4038C33.1127 39.5696 33.1785 39.7285 33.2957 39.8457C33.4129 39.963 33.5719 40.0288 33.7377 40.0288C33.9034 40.0288 34.0624 39.963 34.1796 39.8457C34.2968 39.7285 34.3627 39.5696 34.3627 39.4038V38.3197L36.7803 34.0889C36.8283 33.9921 36.8564 33.8867 36.8627 33.7788V8.77881H37.4877C37.8191 8.77914 38.1368 8.91094 38.3712 9.14529C38.6055 9.37964 38.7373 9.69739 38.7377 10.0288V27.5288C38.7377 27.6258 38.7602 27.7215 38.8036 27.8084L39.4286 29.0584C39.503 29.2062 39.633 29.3186 39.79 29.3707C39.9471 29.4229 40.1185 29.4106 40.2666 29.3366C40.4146 29.2625 40.5272 29.1328 40.5798 28.9758C40.6323 28.8189 40.6204 28.6475 40.5468 28.4993ZM32.4877 6.27881C32.4877 5.94729 32.6194 5.62935 32.8538 5.39493C33.0882 5.1605 33.4062 5.02881 33.7377 5.02881C34.0692 5.02881 34.3871 5.1605 34.6216 5.39493C34.856 5.62935 34.9877 5.94729 34.9877 6.27881V7.52881H32.4877V6.27881ZM35.6127 33.1538H31.8627V29.4038H35.6127V33.1538ZM35.6127 28.1538H31.8627V20.6538H35.6127V28.1538ZM33.7377 36.894L32.3146 34.4038H35.1607L33.7377 36.894ZM35.6127 19.4038H31.8627V8.77881H35.6127V19.4038Z" fill="#200D46"/>
<path d="M26.2377 3.77881H23.7377C23.7377 3.61305 23.6718 3.45408 23.5546 3.33687C23.4374 3.21966 23.2784 3.15381 23.1127 3.15381H18.1127C18.1127 2.32501 17.7834 1.53015 17.1974 0.9441C16.6113 0.358049 15.8165 0.0288086 14.9877 0.0288086C14.1589 0.0288086 13.364 0.358049 12.778 0.9441C12.1919 1.53015 11.8627 2.32501 11.8627 3.15381H6.86267C6.69691 3.15381 6.53794 3.21966 6.42073 3.33687C6.30352 3.45408 6.23767 3.61305 6.23767 3.77881H3.73767C2.90917 3.77978 2.11488 4.10933 1.52904 4.69517C0.943196 5.28101 0.613644 6.07531 0.612671 6.90381L0.612671 36.9038C0.613644 37.7323 0.943196 38.5266 1.52904 39.1124C2.11488 39.6983 2.90917 40.0278 3.73767 40.0288H26.2377C27.0662 40.0278 27.8605 39.6983 28.4463 39.1124C29.0321 38.5266 29.3617 37.7323 29.3627 36.9038V6.90381C29.3617 6.07531 29.0321 5.28101 28.4463 4.69517C27.8605 4.10933 27.0662 3.77978 26.2377 3.77881ZM6.86267 9.40381H10.2263L10.7854 10.522C10.9918 10.9382 11.3107 11.2882 11.7059 11.5325C12.1011 11.7767 12.5568 11.9053 13.0214 11.9038H16.9539C17.4185 11.9053 17.8742 11.7767 18.2694 11.5325C18.6646 11.2882 18.9835 10.9382 19.1899 10.522L19.749 9.40381H23.1127C23.2784 9.40381 23.4374 9.33796 23.5546 9.22075C23.6718 9.10354 23.7377 8.94457 23.7377 8.77881V8.15381H24.9877V35.6538H4.98767V8.15381H6.23767V8.77881C6.23767 8.94457 6.30352 9.10354 6.42073 9.22075C6.53794 9.33796 6.69691 9.40381 6.86267 9.40381ZM14.9877 1.27881C15.4848 1.27935 15.9614 1.47707 16.3129 1.82858C16.6644 2.1801 16.8621 2.65669 16.8627 3.15381H13.1127C13.1132 2.65669 13.3109 2.1801 13.6624 1.82858C14.014 1.47707 14.4906 1.27935 14.9877 1.27881ZM22.4877 4.40381V8.15381H19.3627C19.2466 8.15378 19.1328 8.18609 19.034 8.24711C18.9353 8.30812 18.8555 8.39544 18.8036 8.49926L18.0718 9.96289C17.9686 10.171 17.8092 10.346 17.6116 10.4681C17.414 10.5902 17.1862 10.6546 16.9539 10.6538H13.0214C12.7892 10.6546 12.5613 10.5902 12.3637 10.4681C12.1662 10.346 12.0068 10.171 11.9036 9.96289L11.1718 8.49926C11.1198 8.39544 11.04 8.30812 10.9413 8.24711C10.8425 8.18609 10.7288 8.15378 10.6127 8.15381H7.48767V4.40381H22.4877ZM28.1127 36.9038C28.1121 37.4009 27.9144 37.8775 27.5629 38.229C27.2114 38.5805 26.7348 38.7783 26.2377 38.7788H3.73767C3.24056 38.7783 2.76396 38.5805 2.41245 38.229C2.06093 37.8775 1.86321 37.4009 1.86267 36.9038V6.90381C1.86321 6.40669 2.06093 5.9301 2.41245 5.57858C2.76396 5.22707 3.24056 5.02935 3.73767 5.02881H6.23767V6.90381H4.36267C4.19691 6.90381 4.03794 6.96966 3.92073 7.08687C3.80352 7.20408 3.73767 7.36305 3.73767 7.52881V36.2788C3.73767 36.4446 3.80352 36.6035 3.92073 36.7207C4.03794 36.838 4.19691 36.9038 4.36267 36.9038H25.6127C25.7784 36.9038 25.9374 36.838 26.0546 36.7207C26.1718 36.6035 26.2377 36.4446 26.2377 36.2788V7.52881C26.2377 7.36305 26.1718 7.20408 26.0546 7.08687C25.9374 6.96966 25.7784 6.90381 25.6127 6.90381H23.7377V5.02881H26.2377C26.7348 5.02935 27.2114 5.22707 27.5629 5.57858C27.9144 5.9301 28.1121 6.40669 28.1127 6.90381V36.9038Z" fill="#200D46"/>
<path d="M9.54581 21.7207C9.63321 21.8081 9.74457 21.8676 9.8658 21.8917C9.98703 21.9159 10.1127 21.9035 10.2269 21.8562C10.3411 21.8089 10.4387 21.7288 10.5074 21.626C10.576 21.5232 10.6127 21.4024 10.6127 21.2788V15.6538C10.6129 15.4881 10.6788 15.3293 10.796 15.2121C10.9131 15.0949 11.072 15.029 11.2377 15.0288H22.4877C22.6535 15.0288 22.8124 14.963 22.9296 14.8458C23.0468 14.7285 23.1127 14.5696 23.1127 14.4038C23.1127 14.238 23.0468 14.0791 22.9296 13.9619C22.8124 13.8447 22.6535 13.7788 22.4877 13.7788H11.2377C10.7406 13.7794 10.264 13.9771 9.91246 14.3286C9.56095 14.6801 9.36323 15.1567 9.36269 15.6538V19.77L7.92956 18.3369C7.81211 18.2209 7.65355 18.1561 7.48849 18.1566C7.32343 18.1572 7.16528 18.223 7.04857 18.3397C6.93186 18.4564 6.86606 18.6146 6.86554 18.7796C6.86503 18.9447 6.92983 19.1032 7.04582 19.2207L9.54581 21.7207Z" fill="#200D46"/>
<path d="M13.1127 21.9038C13.2784 21.9038 13.4374 21.838 13.5546 21.7208C13.6718 21.6035 13.7377 21.4446 13.7377 21.2788V16.9038C13.7377 16.738 13.6718 16.5791 13.5546 16.4619C13.4374 16.3447 13.2784 16.2788 13.1127 16.2788H12.4877C12.3219 16.2788 12.1629 16.3447 12.0457 16.4619C11.9285 16.5791 11.8627 16.738 11.8627 16.9038C11.8627 17.0696 11.9285 17.2285 12.0457 17.3458C12.1629 17.463 12.3219 17.5288 12.4877 17.5288V21.2788C12.4877 21.4446 12.5535 21.6035 12.6707 21.7208C12.7879 21.838 12.9469 21.9038 13.1127 21.9038Z" fill="#200D46"/>
<path d="M16.2377 16.2788C15.9063 16.2791 15.5885 16.4109 15.3542 16.6453C15.1198 16.8796 14.988 17.1974 14.9877 17.5288V20.6538C14.988 20.9852 15.1198 21.303 15.3542 21.5373C15.5885 21.7717 15.9063 21.9035 16.2377 21.9038H17.4877C17.8191 21.9035 18.1368 21.7717 18.3712 21.5373C18.6055 21.303 18.7373 20.9852 18.7377 20.6538V17.5288C18.7373 17.1974 18.6055 16.8796 18.3712 16.6453C18.1368 16.4109 17.8191 16.2791 17.4877 16.2788H16.2377ZM16.2377 20.6538V17.5288H17.4877L17.4886 20.6538H16.2377Z" fill="#200D46"/>
<path d="M7.48767 25.6538H22.4877C22.6534 25.6538 22.8124 25.588 22.9296 25.4708C23.0468 25.3535 23.1127 25.1946 23.1127 25.0288C23.1127 24.863 23.0468 24.7041 22.9296 24.5869C22.8124 24.4697 22.6534 24.4038 22.4877 24.4038H7.48767C7.32191 24.4038 7.16294 24.4697 7.04573 24.5869C6.92852 24.7041 6.86267 24.863 6.86267 25.0288C6.86267 25.1946 6.92852 25.3535 7.04573 25.4708C7.16294 25.588 7.32191 25.6538 7.48767 25.6538Z" fill="#200D46"/>
<path d="M7.48767 28.7788H22.4877C22.6534 28.7788 22.8124 28.713 22.9296 28.5958C23.0468 28.4785 23.1127 28.3196 23.1127 28.1538C23.1127 27.988 23.0468 27.8291 22.9296 27.7119C22.8124 27.5947 22.6534 27.5288 22.4877 27.5288H7.48767C7.32191 27.5288 7.16294 27.5947 7.04573 27.7119C6.92852 27.8291 6.86267 27.988 6.86267 28.1538C6.86267 28.3196 6.92852 28.4785 7.04573 28.5958C7.16294 28.713 7.32191 28.7788 7.48767 28.7788Z" fill="#200D46"/>
<path d="M7.48767 31.9038H11.2377C11.4034 31.9038 11.5624 31.838 11.6796 31.7208C11.7968 31.6035 11.8627 31.4446 11.8627 31.2788C11.8627 31.113 11.7968 30.9541 11.6796 30.8369C11.5624 30.7197 11.4034 30.6538 11.2377 30.6538H7.48767C7.32191 30.6538 7.16294 30.7197 7.04573 30.8369C6.92852 30.9541 6.86267 31.113 6.86267 31.2788C6.86267 31.4446 6.92852 31.6035 7.04573 31.7208C7.16294 31.838 7.32191 31.9038 7.48767 31.9038Z" fill="#200D46"/>
</svg>
