<svg width="324" height="166" viewBox="0 0 324 166" fill="none" xmlns="http://www.w3.org/2000/svg">
<path d="M281.321 12.2541C281.393 12.1719 281.481 12.1065 281.581 12.0624C281.68 12.0183 281.788 11.9967 281.897 11.9991L306.831 12.5381C306.988 12.5415 307.14 12.595 307.265 12.6906C307.389 12.7863 307.481 12.9192 307.525 13.0701L314.517 37.0104C314.548 37.1148 314.555 37.2246 314.538 37.3321C314.521 37.4395 314.481 37.542 314.42 37.6321C314.411 37.6438 314.395 37.6656 314.395 37.6656L301.844 54.0351C301.742 54.167 301.598 54.2608 301.437 54.3011C301.275 54.3414 301.104 54.326 300.953 54.2573C300.665 54.1166 300.394 53.9455 300.143 53.7469C299.012 52.8793 297.096 50.7835 297.041 46.5178C296.987 42.2723 294.654 40.3736 293.977 39.9117L293.008 40.0073L292.786 53.0433C292.784 53.1613 292.754 53.2771 292.698 53.381C292.642 53.4849 292.562 53.574 292.464 53.6407C292.367 53.7074 292.255 53.7498 292.138 53.7644C292.021 53.779 291.902 53.7654 291.791 53.7247C290.242 53.1205 288.784 52.3063 287.456 51.3049C285.963 50.1603 284.523 48.6067 283.952 46.638C283.623 45.4992 283.609 44.2925 283.913 43.1467C282.885 43.737 281.716 44.0372 280.531 44.0151C278.481 43.9744 276.608 42.9869 275.114 41.8421C273.802 40.8205 272.637 39.6236 271.65 38.2849C271.582 38.1885 271.538 38.0772 271.522 37.9603C271.506 37.8435 271.518 37.7245 271.557 37.6132C271.596 37.5019 271.661 37.4016 271.747 37.3206C271.833 37.2397 271.937 37.1804 272.05 37.1478L284.583 33.5489L284.425 32.5887C283.799 32.0513 281.36 30.2954 277.249 31.3432C273.115 32.3976 270.595 31.0916 269.463 30.2242C269.205 30.0339 268.968 29.8164 268.757 29.5754C268.651 29.4466 268.592 29.2859 268.589 29.1193C268.586 28.9527 268.639 28.7899 268.74 28.6574L281.289 12.2913C281.289 12.2913 281.312 12.2653 281.321 12.2541ZM305.34 13.9855L288.416 13.6196C292.752 15.2385 296.827 17.4827 300.513 20.2808L305.34 13.9855ZM301.687 21.1808C305.346 24.0142 308.57 27.3674 311.259 31.134L306.513 14.8855L301.687 21.1808ZM300.787 22.3546L288.013 39.0145L312.732 36.5797C311.711 34.3793 308.432 28.3867 300.787 22.3546ZM299.613 21.4546C291.824 15.6537 285.17 14.0316 282.775 13.6127L286.839 38.1145L299.613 21.4546ZM298.519 46.5002C298.568 50.2564 300.228 51.9718 301.076 52.6049L312.182 38.1202L295.986 39.7152C297.111 40.9092 298.475 43.0602 298.519 46.5002ZM285.371 46.2218C286.221 49.163 289.625 51.1063 291.324 51.9142L291.526 40.1545L286.797 40.6204C285.355 42.6 284.868 44.4843 285.371 46.2218ZM273.521 38.2652C274.739 39.6961 277.495 42.4752 280.561 42.5367C282.371 42.5728 284.065 41.6134 285.604 39.7057L284.827 35.0181L273.521 38.2652ZM276.883 29.911C280.218 29.0599 282.65 29.8215 284.093 30.5976L281.43 14.5414L270.324 29.0258C271.16 29.6792 273.246 30.8385 276.883 29.911Z" fill="black"/>
<path d="M280.531 47.5571C280.687 47.6765 280.788 47.8528 280.814 48.0472C280.84 48.2416 280.787 48.4383 280.668 48.594L278.087 51.9598C277.968 52.1154 277.792 52.2173 277.597 52.243C277.403 52.2686 277.206 52.216 277.05 52.0967C276.895 51.9773 276.793 51.801 276.767 51.6066C276.742 51.4121 276.794 51.2154 276.914 51.0598L279.494 47.694C279.614 47.5384 279.79 47.4366 279.984 47.411C280.179 47.3853 280.375 47.4378 280.531 47.5571Z" fill="black"/>
<path d="M297.161 54.9632C297.316 55.0826 297.418 55.2588 297.444 55.4533C297.47 55.6478 297.417 55.8445 297.298 56.0001L294.717 59.3659C294.598 59.5215 294.421 59.6234 294.227 59.6491C294.032 59.6748 293.836 59.6221 293.68 59.5028C293.524 59.3834 293.423 59.2072 293.397 59.0127C293.371 58.8182 293.424 58.6216 293.543 58.4659L296.124 55.1001C296.183 55.023 296.257 54.9583 296.341 54.9097C296.425 54.861 296.518 54.8295 296.614 54.8167C296.71 54.804 296.808 54.8104 296.902 54.8356C296.996 54.8607 297.084 54.9041 297.161 54.9632Z" fill="black"/>
<path d="M292.629 60.8731C292.785 60.9925 292.887 61.1688 292.912 61.3632C292.938 61.5577 292.886 61.7543 292.766 61.91L292.136 62.7317C292.017 62.8873 291.841 62.9892 291.646 63.0149C291.452 63.0406 291.255 62.9879 291.099 62.8686C290.944 62.7492 290.842 62.5729 290.816 62.3785C290.791 62.184 290.843 61.9873 290.963 61.8317L291.592 61.0104C291.651 60.9332 291.725 60.8685 291.809 60.8198C291.893 60.7712 291.986 60.7396 292.082 60.7269C292.179 60.7141 292.277 60.7205 292.371 60.7456C292.464 60.7707 292.552 60.814 292.629 60.8731Z" fill="black"/>
<path d="M287.165 53.4523C287.321 53.5717 287.422 53.748 287.448 53.9424C287.474 54.1369 287.421 54.3336 287.302 54.4892L286.672 55.3102C286.553 55.4659 286.377 55.5678 286.182 55.5934C285.988 55.6191 285.791 55.5665 285.635 55.4471C285.48 55.3278 285.378 55.1515 285.352 54.957C285.327 54.7626 285.379 54.5659 285.498 54.4102L286.128 53.5893C286.247 53.4337 286.424 53.3319 286.618 53.3062C286.813 53.2806 287.009 53.3331 287.165 53.4523Z" fill="black"/>
<path d="M269.063 33.4194C269.14 33.4784 269.205 33.5521 269.253 33.6362C269.302 33.7203 269.333 33.8132 269.346 33.9095C269.359 34.0058 269.352 34.1036 269.327 34.1974C269.302 34.2913 269.259 34.3792 269.2 34.4563L266.619 37.8221C266.5 37.9777 266.323 38.0796 266.129 38.1053C265.934 38.1309 265.738 38.0783 265.582 37.959C265.426 37.8396 265.325 37.6633 265.299 37.4689C265.273 37.2744 265.326 37.0777 265.445 36.9221L268.026 33.5563C268.145 33.4006 268.322 33.2988 268.516 33.2731C268.71 33.2474 268.907 33.3 269.063 33.4194Z" fill="black"/>
<path d="M264.531 39.3293C264.687 39.4486 264.789 39.6249 264.815 39.8194C264.84 40.0138 264.788 40.2105 264.668 40.3662L264.038 41.1879C263.919 41.3435 263.743 41.4454 263.548 41.4711C263.354 41.4967 263.157 41.4441 263.001 41.3248C262.846 41.2054 262.744 41.0291 262.718 40.8347C262.693 40.6402 262.745 40.4435 262.864 40.2879L263.494 39.4665C263.614 39.3109 263.79 39.2089 263.984 39.1832C264.179 39.1575 264.376 39.21 264.531 39.3293Z" fill="black"/>
<path d="M273.116 42.6807C273.272 42.8001 273.374 42.9764 273.399 43.1708C273.425 43.3653 273.372 43.562 273.253 43.7176L272.624 44.5386C272.504 44.6943 272.328 44.7961 272.133 44.8218C271.939 44.8475 271.742 44.7949 271.587 44.6755C271.431 44.5562 271.329 44.3799 271.303 44.1854C271.278 43.991 271.33 43.7943 271.45 43.6386L272.079 42.8176C272.199 42.662 272.375 42.5601 272.569 42.5344C272.764 42.5088 272.961 42.5614 273.116 42.6807Z" fill="black"/>
<path d="M0.683196 78.5692C27.2817 64.5189 96.7845 47.7762 162.008 93.207C227.232 138.638 262.581 92.4147 272.103 63.6242" stroke="black" stroke-width="0.8" stroke-dasharray="10 10"/>
</svg>
