<svg width="38" height="44" viewBox="0 0 38 44" fill="none" xmlns="http://www.w3.org/2000/svg">
<path d="M23.115 8.70996V21.6062C23.115 22.0036 23.2494 22.3898 23.5012 22.7033L36.3527 38.762C37.6009 40.3181 36.4926 42.6297 34.4944 42.6297H5.7969C5.70174 42.6297 5.60659 42.6242 5.51703 42.613" stroke="white" stroke-width="1.75" stroke-miterlimit="10" stroke-linecap="square"/>
<path d="M8.71313 32.7949L16.7845 22.703C17.0364 22.3895 17.1707 22.0033 17.1707 21.6059V5.021C17.1707 4.48926 16.9076 4.01348 16.5102 3.65525C16.2863 3.45375 16.1576 3.22426 16.1576 2.98918C16.1576 2.08801 17.9431 1.36035 20.1373 1.36035C22.337 1.36035 24.1226 2.08801 24.1226 2.98918C24.1226 3.22426 23.9938 3.45375 23.7699 3.65525C23.3725 4.01348 23.1095 4.48926 23.1095 5.021V5.50797" stroke="white" stroke-width="1.75" stroke-miterlimit="10" stroke-linecap="square"/>
<path d="M8.38287 19.4897C8.38287 18.6725 8.62915 17.8441 9.20008 17.2619C9.39039 17.066 9.49674 16.8477 9.49674 16.6238C9.49674 15.6667 7.59365 14.8887 5.24837 14.8887C2.90309 14.8887 1 15.6667 1 16.6238C1 16.8477 1.10635 17.066 1.29666 17.2619C1.86758 17.8441 2.11386 18.6781 2.11386 19.4897V39.3546C2.11386 40.9946 3.3117 42.4555 4.94052 42.6122C6.81003 42.7913 8.38287 41.3248 8.38287 39.4889V22.2547" stroke="white" stroke-width="1.75" stroke-miterlimit="10" stroke-linecap="square"/>
<path d="M2.11389 36.8193H3.92744" stroke="white" stroke-width="1.75" stroke-miterlimit="10" stroke-linecap="square"/>
<path d="M2.11389 33.1758H3.92744" stroke="white" stroke-width="1.75" stroke-miterlimit="10" stroke-linecap="square"/>
<path d="M2.11389 29.5312H3.92744" stroke="white" stroke-width="1.75" stroke-miterlimit="10" stroke-linecap="square"/>
<path d="M2.11389 25.8828H3.92744" stroke="white" stroke-width="1.75" stroke-miterlimit="10" stroke-linecap="square"/>
<path d="M16.8572 27.6396H26.7421" stroke="white" stroke-width="1.75" stroke-miterlimit="10" stroke-linecap="square"/>
<path d="M14.3384 38.9348C15.3678 38.9348 16.2023 38.1003 16.2023 37.0709C16.2023 36.0415 15.3678 35.207 14.3384 35.207C13.309 35.207 12.4745 36.0415 12.4745 37.0709C12.4745 38.1003 13.309 38.9348 14.3384 38.9348Z" stroke="white" stroke-width="1.75" stroke-miterlimit="10" stroke-linecap="square"/>
<path d="M27.4847 38.062C27.4847 38.1259 27.4329 38.1777 27.369 38.1777C27.305 38.1777 27.2532 38.1259 27.2532 38.062C27.2532 37.9981 27.305 37.9463 27.369 37.9463C27.4329 37.9463 27.4847 37.9981 27.4847 38.062Z" fill="#484751" stroke="white" stroke-width="1.75"/>
<path d="M24.839 33.4943C24.6263 34.7033 23.4677 35.5093 22.2587 35.2966C21.0497 35.0839 20.2436 33.9253 20.4563 32.7163C20.669 31.5072 21.8277 30.7012 23.0367 30.9139" stroke="white" stroke-width="1.75" stroke-miterlimit="10" stroke-linecap="square"/>
</svg>
