<svg width="51" height="50" viewBox="0 0 51 50" fill="none" xmlns="http://www.w3.org/2000/svg">
<path d="M40.5122 14.8613L42.6709 8.49565C42.7152 8.36498 42.722 8.22454 42.6906 8.09019C42.6593 7.95584 42.591 7.83294 42.4934 7.73539C42.3958 7.63784 42.2729 7.56951 42.1386 7.53815C42.0042 7.50678 41.8638 7.51362 41.7331 7.55789L35.3674 9.71655L29.9801 5.69631C29.8695 5.61334 29.7378 5.56304 29.6001 5.5511C29.4624 5.53917 29.324 5.56608 29.2008 5.62879C29.0776 5.6915 28.9744 5.78749 28.903 5.90587C28.8316 6.02425 28.7948 6.16028 28.7968 6.29852L28.8813 13.0179L23.3963 16.9008C23.2835 16.9804 23.1952 17.09 23.1414 17.2171C23.0877 17.3443 23.0706 17.484 23.0921 17.6203C23.1137 17.7567 23.173 17.8843 23.2634 17.9887C23.3537 18.0931 23.4715 18.17 23.6034 18.2109L27.7918 19.513L15.5933 31.7115C15.2655 31.5763 14.905 31.5411 14.5572 31.6103C14.2095 31.6794 13.8899 31.8499 13.6388 32.1003L1.02611 44.715C0.859318 44.8817 0.727006 45.0797 0.636735 45.2976C0.546463 45.5154 0.5 45.7489 0.5 45.9847C0.5 46.2206 0.546463 46.4541 0.636735 46.6719C0.727006 46.8898 0.859318 47.0878 1.02611 47.2545L2.97643 49.2048C3.14315 49.3716 3.34109 49.5039 3.55895 49.5942C3.77681 49.6844 4.01033 49.7309 4.24615 49.7309C4.48197 49.7309 4.71549 49.6844 4.93335 49.5942C5.15121 49.5039 5.34915 49.3716 5.51587 49.2048L18.1306 36.59C18.381 36.3389 18.5515 36.0193 18.6206 35.6716C18.6898 35.3238 18.6546 34.9633 18.5194 34.6355L30.7158 22.437L32.0179 26.6254C32.0589 26.7573 32.1361 26.8751 32.2407 26.9654C32.3452 27.0557 32.473 27.115 32.6095 27.1363C32.6478 27.1422 32.6865 27.1452 32.7253 27.1452C32.8437 27.1452 32.9603 27.1169 33.0654 27.0624C33.1704 27.008 33.2609 26.9292 33.3292 26.8325L37.2091 21.3445L43.9286 21.4291C44.0669 21.4327 44.2034 21.3965 44.3218 21.3249C44.4402 21.2533 44.5356 21.1492 44.5967 21.025C44.6594 20.9021 44.6865 20.7641 44.6749 20.6266C44.6632 20.4891 44.6133 20.3576 44.5308 20.247L40.5122 14.8613ZM17.0826 35.5445L4.46781 48.1593C4.4084 48.2185 4.32793 48.2517 4.24404 48.2517C4.16015 48.2517 4.07968 48.2185 4.02027 48.1593L2.06952 46.2085C2.0103 46.1491 1.97704 46.0686 1.97704 45.9847C1.97704 45.9009 2.0103 45.8204 2.06952 45.761L14.6843 33.1462C14.7437 33.087 14.8242 33.0537 14.9081 33.0537C14.9919 33.0537 15.0724 33.087 15.1318 33.1462L17.0826 35.097C17.1418 35.1564 17.1751 35.2368 17.1751 35.3207C17.1751 35.4046 17.1418 35.4851 17.0826 35.5445ZM17.5694 33.4919L16.7369 32.6594L29.3871 20.0087L30.0211 20.2065L30.2184 20.8404L17.5694 33.4919ZM36.8402 19.8603C36.7197 19.8558 36.6001 19.8821 36.4927 19.9368C36.3853 19.9916 36.2937 20.0729 36.2266 20.1731L32.9852 24.755L31.3197 19.3959C31.2841 19.2814 31.2211 19.1774 31.1363 19.0926C31.0515 19.0079 30.9474 18.945 30.8329 18.9095L25.4738 17.2436L30.0557 14.003C30.1538 13.9339 30.2335 13.8418 30.288 13.7349C30.3424 13.628 30.3701 13.5094 30.3684 13.3894L30.2966 7.77806L34.7944 11.1344C34.8903 11.2064 35.0025 11.2539 35.121 11.2727C35.2395 11.2915 35.3608 11.281 35.4744 11.2422L40.789 9.43975L38.9866 14.7544C38.9477 14.8683 38.9372 14.99 38.956 15.1088C38.9747 15.2277 39.0223 15.3402 39.0944 15.4365L42.4507 19.9343L36.8402 19.8603Z" fill="black"/>
<path d="M32.1582 13.5808C31.5627 14.1763 31.2282 14.9838 31.2282 15.8259C31.2282 16.668 31.5627 17.4756 32.1582 18.071C32.7536 18.6664 33.5612 19.001 34.4033 19.001C35.2453 19.001 36.0529 18.6664 36.6484 18.071C36.9432 17.7762 37.1771 17.4262 37.3366 17.0409C37.4962 16.6557 37.5783 16.2429 37.5783 15.8259C37.5783 15.409 37.4962 14.9961 37.3366 14.6109C37.1771 14.2257 36.9432 13.8757 36.6484 13.5808C36.3535 13.286 36.0035 13.0521 35.6183 12.8926C35.2331 12.733 34.8202 12.6509 34.4033 12.6509C33.9863 12.6509 33.5734 12.733 33.1882 12.8926C32.803 13.0521 32.453 13.286 32.1582 13.5808ZM35.6024 17.0251C35.3653 17.262 35.0632 17.4232 34.7345 17.4885C34.4057 17.5538 34.065 17.5201 33.7553 17.3918C33.4457 17.2635 33.181 17.0462 32.9949 16.7675C32.8087 16.4888 32.7093 16.1611 32.7093 15.8259C32.7093 15.4907 32.8087 15.1631 32.9949 14.8843C33.181 14.6056 33.4457 14.3884 33.7553 14.26C34.065 14.1317 34.4057 14.098 34.7345 14.1633C35.0632 14.2286 35.3653 14.3899 35.6024 14.6268C35.9199 14.9451 36.0982 15.3763 36.0982 15.8259C36.0982 16.2755 35.9199 16.7067 35.6024 17.0251Z" fill="black"/>
<path d="M44.7886 6.18187C44.8857 6.18192 44.9818 6.16284 45.0715 6.12571C45.1612 6.08858 45.2427 6.03414 45.3113 5.96549L46.8391 4.43735C46.9077 4.3687 46.9622 4.2872 46.9993 4.19751C47.0365 4.10781 47.0556 4.01168 47.0556 3.91459C47.0556 3.81751 47.0365 3.72137 46.9993 3.63167C46.9622 3.54198 46.9077 3.46048 46.8391 3.39183C46.7704 3.32318 46.6889 3.26872 46.5992 3.23157C46.5095 3.19442 46.4134 3.17529 46.3163 3.17529C46.2192 3.17529 46.1231 3.19442 46.0334 3.23157C45.9437 3.26872 45.8622 3.32318 45.7935 3.39183L44.2654 4.91955C44.162 5.023 44.0916 5.15478 44.0631 5.29823C44.0346 5.44168 44.0493 5.59036 44.1053 5.72547C44.1613 5.86058 44.2561 5.97605 44.3777 6.05729C44.4994 6.13853 44.6423 6.18188 44.7886 6.18187Z" fill="black"/>
<path d="M49.75 22.8155L47.825 21.8346C47.6507 21.7493 47.4498 21.7359 47.2657 21.7973C47.0816 21.8588 46.929 21.9901 46.8409 22.163C46.7528 22.336 46.7361 22.5366 46.7946 22.7217C46.8531 22.9067 46.982 23.0614 47.1535 23.1523L49.0789 24.1332C49.1656 24.1799 49.2609 24.2088 49.3589 24.2181C49.457 24.2275 49.556 24.2172 49.6501 24.1878C49.7441 24.1584 49.8313 24.1105 49.9066 24.0469C49.9819 23.9834 50.0437 23.9054 50.0884 23.8176C50.1331 23.7298 50.1598 23.6339 50.167 23.5356C50.1742 23.4374 50.1616 23.3387 50.1301 23.2453C50.0985 23.1519 50.0487 23.0658 49.9834 22.992C49.9181 22.9182 49.8388 22.8582 49.75 22.8155Z" fill="black"/>
<path d="M32.2216 29.6011C32.028 29.5709 31.8304 29.6187 31.6719 29.734C31.5135 29.8492 31.4072 30.0226 31.3764 30.216L31.0383 32.3502C31.0077 32.5437 31.0553 32.7415 31.1705 32.9C31.2858 33.0585 31.4592 33.1647 31.6527 33.1954C31.6913 33.2016 31.7303 33.2047 31.7694 33.2047C31.9454 33.2044 32.1155 33.1413 32.2492 33.027C32.383 32.9126 32.4716 32.7543 32.4992 32.5805L32.8373 30.4468C32.8524 30.3508 32.8485 30.2528 32.8257 30.1584C32.8029 30.0639 32.7618 29.9749 32.7046 29.8964C32.6474 29.8179 32.5753 29.7514 32.4925 29.7007C32.4096 29.65 32.3175 29.6162 32.2216 29.6011Z" fill="black"/>
<path d="M27.0768 3.07554C27.1677 3.24703 27.3223 3.37592 27.5074 3.43439C27.6925 3.49287 27.8931 3.47626 28.066 3.38813C28.239 3.3 28.3703 3.14743 28.4317 2.96332C28.4932 2.77922 28.4798 2.57834 28.3945 2.40402L27.4136 0.479052C27.3709 0.390254 27.3109 0.310887 27.237 0.245612C27.1632 0.180337 27.0771 0.13047 26.9838 0.098941C26.8904 0.0674118 26.7917 0.054856 26.6934 0.0620109C26.5951 0.0691659 26.4993 0.0958873 26.4115 0.140606C26.3237 0.185324 26.2457 0.247138 26.1821 0.322416C26.1185 0.397694 26.0706 0.484919 26.0412 0.578966C26.0118 0.673014 26.0015 0.771988 26.0109 0.870075C26.0203 0.968163 26.0492 1.06339 26.0959 1.15015L27.0768 3.07554Z" fill="black"/>
<path d="M17.7613 19.2011C17.8003 19.2011 17.8394 19.198 17.8779 19.1918L20.0121 18.8537C20.1096 18.8404 20.2036 18.8077 20.2883 18.7576C20.3731 18.7075 20.447 18.641 20.5058 18.562C20.5645 18.4829 20.6068 18.393 20.6303 18.2973C20.6538 18.2017 20.658 18.1023 20.6426 18.0051C20.6271 17.9078 20.5924 17.8146 20.5405 17.731C20.4886 17.6473 20.4205 17.5748 20.3402 17.5178C20.2599 17.4608 20.169 17.4205 20.0729 17.399C19.9768 17.3776 19.8774 17.3756 19.7805 17.3932L17.6468 17.7312C17.4627 17.76 17.2964 17.8571 17.1808 18.0033C17.0653 18.1494 17.0092 18.3337 17.0237 18.5194C17.0381 18.705 17.1221 18.8784 17.2589 19.0049C17.3956 19.1314 17.575 19.2011 17.7613 19.2011Z" fill="black"/>
<path d="M45.3409 13.3446L43.9831 13.5597C43.799 13.5885 43.6326 13.6856 43.5171 13.8318C43.4016 13.9779 43.3455 14.1623 43.36 14.348C43.3745 14.5337 43.4586 14.7071 43.5954 14.8336C43.7323 14.96 43.9118 15.0301 44.098 15.0299C44.1371 15.0299 44.1761 15.0268 44.2147 15.0206L45.5725 14.8055C45.7662 14.7748 45.9398 14.6684 46.0551 14.5097C46.1704 14.351 46.2179 14.153 46.1872 13.9593C46.1565 13.7655 46.0501 13.5919 45.8914 13.4766C45.7327 13.3614 45.5347 13.3139 45.3409 13.3446Z" fill="black"/>
<path d="M39.5187 24.2366C39.4755 24.1485 39.4153 24.0699 39.3415 24.0052C39.2676 23.9406 39.1817 23.8914 39.0886 23.8603C38.9955 23.8292 38.8972 23.817 38.7993 23.8243C38.7015 23.8316 38.6061 23.8583 38.5187 23.9029C38.4312 23.9475 38.3536 24.009 38.2901 24.0838C38.2267 24.1587 38.1788 24.2454 38.1493 24.339C38.1197 24.4326 38.1091 24.5311 38.1179 24.6288C38.1268 24.7265 38.1551 24.8215 38.201 24.9082L38.8248 26.1337C38.8679 26.2218 38.9282 26.3005 39.002 26.3651C39.0758 26.4297 39.1618 26.479 39.2549 26.5101C39.348 26.5411 39.4463 26.5533 39.5441 26.546C39.642 26.5387 39.7374 26.512 39.8248 26.4675C39.9122 26.4229 39.9899 26.3614 40.0533 26.2865C40.1167 26.2117 40.1646 26.1249 40.1942 26.0314C40.2238 25.9378 40.2344 25.8393 40.2255 25.7416C40.2166 25.6439 40.1884 25.5489 40.1425 25.4622L39.5187 24.2366Z" fill="black"/>
<path d="M35.823 6.86082C35.8616 6.86682 35.9006 6.86993 35.9396 6.87012C36.1156 6.86979 36.2857 6.80679 36.4195 6.6924C36.5532 6.57802 36.6419 6.41974 36.6695 6.24593L36.8846 4.8881C36.8998 4.79218 36.896 4.69419 36.8733 4.59975C36.8506 4.5053 36.8096 4.41625 36.7525 4.33767C36.6954 4.25908 36.6234 4.19251 36.5406 4.14175C36.4578 4.09099 36.3658 4.05704 36.2699 4.04184C36.174 4.02663 36.076 4.03047 35.9816 4.05313C35.8871 4.07579 35.7981 4.11683 35.7195 4.17391C35.6409 4.23099 35.5743 4.30298 35.5236 4.38579C35.4728 4.4686 35.4388 4.56059 35.4236 4.65651L35.2085 6.01265C35.1931 6.1087 35.1968 6.20685 35.2193 6.30148C35.2419 6.39611 35.2828 6.48537 35.3399 6.56415C35.397 6.64293 35.469 6.70968 35.5519 6.76059C35.6348 6.81149 35.7269 6.84555 35.823 6.86082Z" fill="black"/>
<path d="M24.0961 11.4043L25.3217 12.028C25.4084 12.074 25.5034 12.1022 25.6011 12.1111C25.6988 12.12 25.7973 12.1093 25.8909 12.0798C25.9844 12.0502 26.0712 12.0023 26.146 11.9389C26.2209 11.8755 26.2824 11.7978 26.327 11.7104C26.3715 11.623 26.3982 11.5276 26.4055 11.4297C26.4128 11.3319 26.4006 11.2335 26.3696 11.1405C26.3385 11.0474 26.2892 10.9614 26.2246 10.8876C26.16 10.8138 26.0813 10.7535 25.9932 10.7104L24.7677 10.0866C24.681 10.0406 24.586 10.0124 24.4883 10.0035C24.3906 9.99464 24.2921 10.0053 24.1985 10.0349C24.1049 10.0644 24.0182 10.1123 23.9433 10.1757C23.8684 10.2391 23.8069 10.3168 23.7624 10.4042C23.7178 10.4917 23.6911 10.5871 23.6838 10.6849C23.6765 10.7828 23.6887 10.8811 23.7198 10.9742C23.7509 11.0672 23.8001 11.1532 23.8647 11.227C23.9294 11.3009 24.008 11.3611 24.0961 11.4043Z" fill="black"/>
</svg>
