<svg width="80" height="80" viewBox="0 0 80 80" fill="none" xmlns="http://www.w3.org/2000/svg">
<path d="M17.5406 25.1494L14.3481 15.7351C14.2827 15.5418 14.2726 15.3341 14.3189 15.1354C14.3653 14.9367 14.4664 14.755 14.6107 14.6107C14.7549 14.4664 14.9367 14.3654 15.1354 14.319C15.3341 14.2726 15.5418 14.2827 15.735 14.3482L25.1494 17.5407L33.1169 11.5951C33.2804 11.4724 33.4751 11.398 33.6788 11.3803C33.8825 11.3627 34.0871 11.4025 34.2693 11.4952C34.4516 11.5879 34.6041 11.7299 34.7098 11.905C34.8154 12.0801 34.8698 12.2812 34.8669 12.4857L34.7419 22.4232L42.8538 28.1657C43.0206 28.2833 43.1512 28.4454 43.2307 28.6334C43.3102 28.8215 43.3355 29.0281 43.3036 29.2297C43.2717 29.4314 43.184 29.6201 43.0503 29.7745C42.9167 29.9289 42.7425 30.0427 42.5475 30.1032L36.3531 32.0288L54.3938 50.0694C54.8786 49.8695 55.4117 49.8174 55.926 49.9197C56.4404 50.0221 56.913 50.2742 57.2844 50.6444L75.9375 69.3007C76.1842 69.5472 76.3799 69.84 76.5134 70.1622C76.6469 70.4844 76.7156 70.8297 76.7156 71.1785C76.7156 71.5273 76.6469 71.8726 76.5134 72.1948C76.3799 72.517 76.1842 72.8097 75.9375 73.0563L73.0531 75.9407C72.8066 76.1873 72.5138 76.383 72.1916 76.5165C71.8694 76.65 71.5241 76.7188 71.1753 76.7188C70.8265 76.7188 70.4812 76.65 70.159 76.5165C69.8368 76.383 69.5441 76.1873 69.2975 75.9407L50.6413 57.2844C50.271 56.913 50.0189 56.4404 49.9166 55.9261C49.8143 55.4117 49.8663 54.8786 50.0663 54.3938L32.0288 36.3532L30.1031 42.5476C30.0424 42.7427 29.9283 42.9169 29.7736 43.0504C29.619 43.184 29.43 43.2715 29.2281 43.3032C29.1715 43.3119 29.1142 43.3163 29.0569 43.3163C28.8819 43.3163 28.7094 43.2744 28.554 43.1939C28.3986 43.1134 28.2647 42.9968 28.1638 42.8538L22.4256 34.7376L12.4881 34.8626C12.2835 34.8679 12.0817 34.8144 11.9066 34.7085C11.7314 34.6026 11.5903 34.4487 11.5 34.2651C11.4072 34.0833 11.3672 33.8792 11.3844 33.6758C11.4017 33.4725 11.4755 33.278 11.5975 33.1144L17.5406 25.1494ZM52.1913 55.7382L70.8475 74.3944C70.9354 74.482 71.0544 74.5312 71.1784 74.5312C71.3025 74.5312 71.4215 74.482 71.5094 74.3944L74.3944 71.5094C74.482 71.4216 74.5312 71.3026 74.5312 71.1785C74.5312 71.0544 74.482 70.9354 74.3944 70.8476L55.7381 52.1913C55.6503 52.1037 55.5313 52.0545 55.4072 52.0545C55.2831 52.0545 55.1641 52.1037 55.0763 52.1913L52.1913 55.0763C52.1037 55.1642 52.0545 55.2832 52.0545 55.4072C52.0545 55.5313 52.1037 55.6503 52.1913 55.7382ZM51.4713 52.7026L52.7025 51.4713L33.9938 32.7619L33.0563 33.0544L32.7644 33.9919L51.4713 52.7026ZM22.9713 32.5426C23.1494 32.5358 23.3264 32.5747 23.4852 32.6557C23.6441 32.7366 23.7796 32.8569 23.8788 33.0051L28.6725 39.7813L31.1356 31.8557C31.1884 31.6864 31.2814 31.5325 31.4069 31.4071C31.5323 31.2818 31.6863 31.1889 31.8556 31.1363L39.7813 28.6726L33.005 23.8801C32.86 23.7777 32.7421 23.6416 32.6615 23.4835C32.5809 23.3254 32.5401 23.15 32.5425 22.9726L32.6488 14.6738L25.9969 19.6376C25.855 19.7441 25.6891 19.8143 25.5139 19.8421C25.3386 19.8699 25.1592 19.8544 24.9913 19.7969L17.1313 17.1313L19.7969 24.9913C19.8545 25.1597 19.87 25.3396 19.8422 25.5154C19.8145 25.6912 19.7442 25.8576 19.6375 26.0001L14.6738 32.6519L22.9713 32.5426Z" fill="white"/>
<path d="M29.8956 23.255C30.7762 24.1356 31.2709 25.3299 31.2709 26.5753C31.2709 27.8206 30.7762 29.015 29.8956 29.8956C29.015 30.7762 27.8207 31.2709 26.5753 31.2709C25.3299 31.2709 24.1356 30.7762 23.255 29.8956C22.819 29.4596 22.4731 28.9419 22.2371 28.3722C22.0011 27.8025 21.8797 27.1919 21.8797 26.5753C21.8797 25.9586 22.0011 25.348 22.2371 24.7783C22.4731 24.2086 22.819 23.691 23.255 23.255C23.691 22.8189 24.2087 22.473 24.7784 22.2371C25.3481 22.0011 25.9587 21.8796 26.5753 21.8796C27.1919 21.8796 27.8025 22.0011 28.3722 22.2371C28.9419 22.473 29.4596 22.8189 29.8956 23.255ZM24.8019 28.3487C25.1525 28.6991 25.5992 28.9376 26.0855 29.0341C26.5717 29.1307 27.0756 29.0809 27.5336 28.8911C27.9915 28.7013 28.3829 28.38 28.6582 27.9678C28.9336 27.5556 29.0806 27.071 29.0806 26.5753C29.0806 26.0796 28.9336 25.595 28.6582 25.1828C28.3829 24.7706 27.9915 24.4492 27.5336 24.2594C27.0756 24.0696 26.5717 24.0199 26.0855 24.1164C25.5992 24.2129 25.1525 24.4515 24.8019 24.8018C24.3323 25.2726 24.0686 25.9104 24.0686 26.5753C24.0686 27.2402 24.3323 27.8779 24.8019 28.3487Z" fill="white"/>
<path d="M11.2162 12.3125C11.0727 12.3125 10.9305 12.2843 10.7978 12.2294C10.6652 12.1745 10.5446 12.094 10.4431 11.9925L8.18373 9.73246C8.0822 9.63093 8.00167 9.5104 7.94672 9.37774C7.89177 9.24509 7.86349 9.10291 7.86349 8.95933C7.86349 8.81575 7.89177 8.67357 7.94672 8.54092C8.00167 8.40827 8.0822 8.28773 8.18373 8.18621C8.28526 8.08468 8.40579 8.00414 8.53844 7.94919C8.67109 7.89425 8.81327 7.86597 8.95685 7.86597C9.10044 7.86597 9.24261 7.89425 9.37527 7.94919C9.50792 8.00414 9.62845 8.08468 9.72998 8.18621L11.99 10.4456C12.1429 10.5986 12.247 10.7935 12.2891 11.0056C12.3312 11.2178 12.3095 11.4377 12.2267 11.6375C12.1439 11.8373 12.0037 12.0081 11.8238 12.1282C11.644 12.2484 11.4325 12.3125 11.2162 12.3125Z" fill="white"/>
<path d="M3.87875 36.9124L6.72562 35.4617C6.98342 35.3355 7.28051 35.3157 7.55279 35.4066C7.82506 35.4975 8.05071 35.6917 8.18104 35.9475C8.31138 36.2032 8.33595 36.4999 8.24946 36.7736C8.16298 37.0473 7.97236 37.2761 7.71874 37.4105L4.87124 38.8611C4.74293 38.9302 4.6021 38.9729 4.45704 38.9868C4.31198 39.0007 4.1656 38.9854 4.02651 38.942C3.88742 38.8985 3.75842 38.8277 3.64709 38.7336C3.53576 38.6396 3.44434 38.5243 3.37821 38.3944C3.31207 38.2646 3.27256 38.1228 3.26198 37.9775C3.25139 37.8321 3.26996 37.6861 3.31659 37.5481C3.36322 37.41 3.43697 37.2826 3.53351 37.1735C3.63004 37.0643 3.74742 36.9755 3.87875 36.9124Z" fill="white"/>
<path d="M29.8019 46.9481C30.0882 46.9035 30.3805 46.9741 30.6147 47.1446C30.849 47.315 31.0062 47.5714 31.0519 47.8575L31.5519 51.0138C31.597 51.3 31.5267 51.5925 31.3563 51.8269C31.1859 52.0613 30.9294 52.2184 30.6431 52.2638C30.5861 52.2729 30.5284 52.2775 30.4706 52.2775C30.2104 52.277 29.9588 52.1838 29.761 52.0147C29.5632 51.8455 29.4321 51.6114 29.3913 51.3544L28.8913 48.1988C28.8689 48.0568 28.8747 47.9119 28.9084 47.7723C28.9421 47.6326 29.0029 47.5009 29.0875 47.3848C29.1721 47.2687 29.2787 47.1703 29.4013 47.0954C29.5238 47.0205 29.66 46.9704 29.8019 46.9481Z" fill="white"/>
<path d="M37.4106 7.71869C37.2762 7.97231 37.0474 8.16293 36.7737 8.24941C36.5 8.3359 36.2033 8.31132 35.9476 8.18099C35.6918 8.05066 35.4976 7.82501 35.4067 7.55273C35.3158 7.28046 35.3356 6.98337 35.4618 6.72557L36.9125 3.87869C36.9756 3.74737 37.0644 3.62999 37.1736 3.53345C37.2827 3.43692 37.4101 3.36317 37.5482 3.31654C37.6862 3.26991 37.8322 3.25134 37.9776 3.26192C38.1229 3.2725 38.2647 3.31202 38.3945 3.37816C38.5244 3.44429 38.6397 3.53571 38.7337 3.64704C38.8278 3.75837 38.8986 3.88737 38.9421 4.02646C38.9855 4.16555 39.0008 4.31192 38.9869 4.45698C38.973 4.60205 38.9303 4.74287 38.8612 4.87119L37.4106 7.71869Z" fill="white"/>
<path d="M51.1875 31.5667C51.1297 31.5668 51.072 31.5622 51.015 31.553L47.8587 31.053C47.7144 31.0333 47.5755 30.985 47.4502 30.9109C47.3248 30.8368 47.2155 30.7384 47.1286 30.6215C47.0418 30.5046 46.9791 30.3716 46.9444 30.2301C46.9096 30.0887 46.9035 29.9418 46.9263 29.7979C46.9491 29.6541 47.0004 29.5163 47.0772 29.3925C47.154 29.2688 47.2547 29.1616 47.3735 29.0773C47.4922 28.9931 47.6266 28.9333 47.7687 28.9017C47.9109 28.87 48.0579 28.867 48.2012 28.893L51.3569 29.393C51.629 29.4355 51.8751 29.5792 52.0459 29.7952C52.2168 30.0113 52.2998 30.2839 52.2784 30.5585C52.257 30.8331 52.1328 31.0896 51.9305 31.2766C51.7283 31.4636 51.4629 31.5668 51.1875 31.5667Z" fill="white"/>
<path d="M10.3994 22.9056L12.4075 23.2237C12.6797 23.2663 12.9258 23.41 13.0967 23.6261C13.2675 23.8423 13.3505 24.1149 13.329 24.3896C13.3075 24.6643 13.1832 24.9207 12.9808 25.1077C12.7785 25.2946 12.513 25.3984 12.2375 25.3981C12.1797 25.3981 12.1221 25.3935 12.065 25.3843L10.0569 25.0662C9.77038 25.0208 9.51363 24.8634 9.34315 24.6287C9.17267 24.394 9.10241 24.1012 9.14783 23.8146C9.19324 23.5281 9.35062 23.2714 9.58533 23.1009C9.82005 22.9304 10.1129 22.8602 10.3994 22.9056Z" fill="white"/>
<path d="M19.01 39.0142C19.0738 38.8839 19.1629 38.7675 19.2721 38.672C19.3813 38.5764 19.5085 38.5036 19.6461 38.4576C19.7838 38.4117 19.9292 38.3936 20.0739 38.4044C20.2186 38.4152 20.3597 38.4547 20.489 38.5206C20.6183 38.5865 20.7332 38.6775 20.827 38.7882C20.9208 38.8989 20.9916 39.0272 21.0353 39.1656C21.079 39.3039 21.0948 39.4496 21.0816 39.5941C21.0685 39.7386 21.0267 39.8791 20.9588 40.0073L20.0363 41.8198C19.9725 41.9502 19.8834 42.0665 19.7742 42.162C19.665 42.2576 19.5378 42.3305 19.4002 42.3764C19.2625 42.4223 19.1171 42.4404 18.9724 42.4296C18.8277 42.4188 18.6866 42.3793 18.5573 42.3134C18.428 42.2475 18.3131 42.1565 18.2193 42.0458C18.1255 41.9351 18.0547 41.8068 18.011 41.6684C17.9673 41.5301 17.9515 41.3844 17.9647 41.2399C17.9778 41.0954 18.0196 40.9549 18.0875 40.8267L19.01 39.0142Z" fill="white"/>
<path d="M24.4756 13.3168C24.4185 13.3257 24.3609 13.3303 24.3031 13.3306C24.0428 13.3301 23.7912 13.2369 23.5934 13.0677C23.3956 12.8986 23.2646 12.6645 23.2237 12.4075L22.9056 10.3993C22.8831 10.2575 22.8888 10.1126 22.9223 9.97288C22.9558 9.8332 23.0165 9.70149 23.1009 9.58527C23.1853 9.46906 23.2918 9.3706 23.4143 9.29553C23.5367 9.22047 23.6728 9.17026 23.8147 9.14777C23.9565 9.12528 24.1014 9.13095 24.2411 9.16447C24.3808 9.19798 24.5125 9.25868 24.6287 9.34309C24.7449 9.4275 24.8434 9.53398 24.9184 9.65645C24.9935 9.77891 25.0437 9.91496 25.0662 10.0568L25.3843 12.0625C25.4072 12.2045 25.4017 12.3497 25.3684 12.4896C25.3351 12.6296 25.2745 12.7616 25.1901 12.8781C25.1057 12.9946 24.9991 13.0933 24.8765 13.1686C24.7539 13.2439 24.6177 13.2942 24.4756 13.3168Z" fill="white"/>
<path d="M41.8188 20.0363L40.0063 20.9588C39.878 21.0268 39.7376 21.0685 39.5931 21.0817C39.4486 21.0948 39.3029 21.079 39.1645 21.0353C39.0261 20.9916 38.8979 20.9208 38.7871 20.827C38.6764 20.7332 38.5854 20.6183 38.5196 20.489C38.4537 20.3597 38.4142 20.2186 38.4033 20.0739C38.3925 19.9292 38.4106 19.7838 38.4566 19.6462C38.5025 19.5085 38.5754 19.3814 38.6709 19.2722C38.7665 19.163 38.8828 19.0739 39.0131 19.0101L40.8256 18.0876C40.9538 18.0196 41.0943 17.9778 41.2388 17.9647C41.3833 17.9516 41.529 17.9673 41.6674 18.011C41.8057 18.0548 41.934 18.1256 42.0448 18.2194C42.1555 18.3132 42.2464 18.428 42.3123 18.5573C42.3782 18.6866 42.4177 18.8277 42.4285 18.9724C42.4394 19.1171 42.4213 19.2626 42.3753 19.4002C42.3294 19.5378 42.2565 19.665 42.161 19.7742C42.0654 19.8834 41.9491 19.9725 41.8188 20.0363Z" fill="white"/>
</svg>
