<svg width="69" height="69" viewBox="0 0 69 69" fill="none" xmlns="http://www.w3.org/2000/svg">
<path d="M48.6458 33.2217L53.5581 28.3094L53.872 28.6232C53.9712 28.7237 54.0893 28.8036 54.2195 28.8582C54.3497 28.9129 54.4895 28.9413 54.6307 28.9417C54.7719 28.9421 54.9118 28.9147 55.0424 28.8608C55.1729 28.807 55.2915 28.7278 55.3914 28.628C55.4912 28.5281 55.5704 28.4095 55.6242 28.279C55.678 28.1484 55.7055 28.0085 55.7051 27.8673C55.7046 27.7261 55.6763 27.5863 55.6216 27.4561C55.5669 27.3259 55.4871 27.2078 55.3866 27.1086L55.0727 26.7947L61.0562 20.8113L61.3701 21.1251C61.4693 21.2256 61.5874 21.3055 61.7176 21.3601C61.8479 21.4148 61.9876 21.4431 62.1288 21.4436C62.27 21.444 62.4099 21.4165 62.5405 21.3627C62.6711 21.3088 62.7897 21.2297 62.8895 21.1299C62.9894 21.03 63.0685 20.9114 63.1223 20.7808C63.1762 20.6503 63.2036 20.5104 63.2032 20.3691C63.2028 20.2279 63.1744 20.0882 63.1197 19.958C63.0651 19.8278 62.9852 19.7096 62.8847 19.6104L62.5709 19.2966L65.8 16.0674C66.6766 15.195 67.3725 14.1583 67.8478 13.0166C68.3231 11.8749 68.5685 10.6507 68.57 9.41402C68.5715 8.17734 68.329 6.95252 67.8564 5.80969C67.3839 4.66686 66.6905 3.62848 65.816 2.75401C64.9416 1.87955 63.9032 1.18617 62.7604 0.713595C61.6175 0.24102 60.3927 -0.00147208 59.156 6.7231e-06C57.9193 0.00148553 56.6951 0.246906 55.5534 0.722213C54.4117 1.19752 53.375 1.89338 52.5026 2.76993L49.2735 5.99911L48.9596 5.68526C48.7583 5.48649 48.4866 5.37543 48.2037 5.37633C47.9208 5.37723 47.6497 5.49 47.4497 5.69004C47.2497 5.89008 47.1369 6.16113 47.136 6.44402C47.1351 6.72691 47.2462 6.99866 47.445 7.19995L47.7588 7.5138L41.7753 13.4972L41.4615 13.1834C41.2602 12.9846 40.9884 12.8736 40.7055 12.8745C40.4226 12.8754 40.1516 12.9881 39.9516 13.1882C39.7515 13.3882 39.6388 13.6593 39.6379 13.9422C39.637 14.225 39.7481 14.4968 39.9469 14.6981L40.2607 15.0119L35.3484 19.9242L15.7536 0.329516C15.6542 0.230025 15.5361 0.151102 15.4062 0.0972552C15.2762 0.0434083 15.1369 0.0156932 14.9963 0.0156932C14.8556 0.0156932 14.7163 0.0434083 14.5864 0.0972552C14.4564 0.151102 14.3383 0.230025 14.2389 0.329516L0.313813 14.2546C0.214326 14.3541 0.135405 14.4721 0.0815595 14.6021C0.0277143 14.732 0 14.8713 0 15.012C0 15.1526 0.0277143 15.2919 0.0815595 15.4219C0.135405 15.5518 0.214326 15.6699 0.313813 15.7693L19.9086 35.364L4.59921 50.6734L4.596 50.6774C4.47159 50.8154 4.37796 50.9783 4.32134 51.1553L2.24662 58.9354L2.24283 58.9432L0.20012 66.6099L0.0366719 67.2227C0.012128 67.3127 -0.000197318 67.4056 2.74209e-05 67.4988C8.98195e-05 67.663 0.0378825 67.825 0.110488 67.9723C0.183094 68.1195 0.28857 68.2482 0.418774 68.3482C0.548978 68.4482 0.700427 68.517 0.86143 68.5492C1.02243 68.5814 1.18868 68.5762 1.34735 68.5339L9.62793 66.3273L9.63447 66.324L17.4148 64.2493C17.5919 64.192 17.755 64.0981 17.8934 63.9735L17.8969 63.9706L33.206 48.6615L49.9189 65.3754C51.446 66.9012 53.3912 67.9401 55.5086 68.3607C57.626 68.7813 59.8205 68.5648 61.8149 67.7386C63.8093 66.9124 65.514 65.5134 66.7136 63.7186C67.9131 61.9238 68.5537 59.8137 68.5544 57.6549C68.5471 54.7613 67.3987 51.9873 65.3587 49.9351L48.6458 33.2217ZM54.0173 4.28462C55.379 2.92299 57.2257 2.15803 59.1514 2.15803C61.077 2.15803 62.9238 2.92299 64.2854 4.28462C65.647 5.64625 66.412 7.49302 66.412 9.41866C66.412 11.3443 65.647 13.1911 64.2854 14.5527L61.0562 17.7819L50.7881 7.5138L54.0173 4.28462ZM49.2735 9.02848L59.5415 19.2966L53.558 25.28L43.2901 15.012L49.2735 9.02848ZM52.0434 26.7946L17.983 60.8546C17.5031 58.3089 16.2665 55.9671 14.4347 54.1353C12.6029 52.3036 10.2611 51.0669 7.71541 50.5871L41.7754 16.5267L52.0434 26.7946ZM10.0427 63.9979C9.5588 62.7573 8.82278 61.6307 7.88116 60.6891C6.93954 59.7476 5.81281 59.0117 4.57221 58.5279L6.16824 52.5437C8.7174 52.7405 11.1122 53.8423 12.92 55.6503C14.7279 57.4582 15.8296 59.853 16.0263 62.4022L10.0427 63.9979ZM2.58288 65.9872L2.67218 65.652L4.01871 60.6031C5.79427 61.3615 7.2087 62.7759 7.96725 64.5514L2.58288 65.9872ZM18.6533 31.0793L22.1806 27.552C22.3794 27.3507 22.4905 27.079 22.4896 26.7961C22.4887 26.5132 22.3759 26.2421 22.1758 26.0421C21.9758 25.8421 21.7048 25.7293 21.4219 25.7284C21.139 25.7275 20.8672 25.8386 20.6659 26.0374L17.1386 29.5647L13.2975 25.7235L14.6825 24.3385C14.8813 24.1372 14.9923 23.8655 14.9914 23.5826C14.9905 23.2997 14.8778 23.0287 14.6777 22.8286C14.4777 22.6286 14.2066 22.5158 13.9237 22.5149C13.6409 22.5141 13.3691 22.6251 13.1678 22.8239L11.7828 24.2089L7.94168 20.3677L11.469 16.8404C11.6678 16.6391 11.7788 16.3673 11.7779 16.0845C11.7771 15.8016 11.6643 15.5305 11.4642 15.3305C11.2642 15.1305 10.9931 15.0177 10.7103 15.0168C10.4274 15.0159 10.1556 15.127 9.95433 15.3258L6.427 18.853L2.58588 15.0119L14.9963 2.60151L33.8337 21.4389L21.4233 33.8493L18.6533 31.0793ZM57.6388 66.4277C55.312 66.4273 53.0803 65.5039 51.4335 63.8601L45.4321 57.8585L48.9596 54.3311C49.1575 54.1296 49.2677 53.8581 49.2665 53.5758C49.2652 53.2934 49.1525 53.0229 48.9528 52.8233C48.7531 52.6236 48.4827 52.5108 48.2003 52.5096C47.9179 52.5083 47.6465 52.6186 47.445 52.8164L43.9176 56.3439L40.0765 52.5027L41.4615 51.1177C41.6624 50.9168 41.7752 50.6444 41.7752 50.3603C41.7752 50.0763 41.6624 49.8038 41.4615 49.603C41.2607 49.4021 40.9883 49.2893 40.7042 49.2893C40.4201 49.2893 40.1477 49.4021 39.9469 49.6029L38.5618 50.988L34.7207 47.1468L47.1311 34.7364L63.844 51.4502C65.0705 52.6776 65.9056 54.2409 66.2438 55.9428C66.582 57.6446 66.408 59.4085 65.7439 61.0115C65.0797 62.6145 63.9553 63.9846 62.5126 64.9487C61.07 65.9127 59.3739 66.4274 57.6388 66.4277Z" fill="#9B5BFC"/>
<path d="M57.8427 53.5737C56.9953 53.5737 56.1669 53.825 55.4623 54.2958C54.7577 54.7666 54.2085 55.4358 53.8842 56.2187C53.5599 57.0016 53.4751 57.8631 53.6404 58.6943C53.8057 59.5254 54.2138 60.2889 54.813 60.8881C55.4122 61.4873 56.1757 61.8954 57.0068 62.0607C57.838 62.226 58.6995 62.1412 59.4824 61.8169C60.2653 61.4926 60.9345 60.9434 61.4053 60.2388C61.8761 59.5342 62.1274 58.7058 62.1274 57.8584C62.1262 56.7224 61.6744 55.6333 60.8711 54.83C60.0678 54.0267 58.9787 53.5749 57.8427 53.5737ZM57.8427 60.0007C57.419 60.0007 57.0048 59.8751 56.6525 59.6397C56.3002 59.4043 56.0256 59.0697 55.8635 58.6782C55.7013 58.2867 55.6589 57.856 55.7416 57.4404C55.8242 57.0249 56.0283 56.6431 56.3279 56.3435C56.6275 56.0439 57.0092 55.8399 57.4248 55.7572C57.8403 55.6746 58.2711 55.717 58.6626 55.8791C59.054 56.0413 59.3886 56.3159 59.624 56.6682C59.8594 57.0205 59.985 57.4347 59.985 57.8584C59.9844 58.4264 59.7585 58.9709 59.3569 59.3725C58.9552 59.7741 58.4107 60.0001 57.8427 60.0007Z" fill="#9B5BFC"/>
</svg>
