<svg width="60" height="69" viewBox="0 0 60 69" fill="none" xmlns="http://www.w3.org/2000/svg">
<path d="M54.6429 6.42857H35.3571V5.35714C35.3571 3.93634 34.7927 2.57373 33.7881 1.56907C32.7834 0.564412 31.4208 0 30 0C28.5792 0 27.2166 0.564412 26.2119 1.56907C25.2073 2.57373 24.6429 3.93634 24.6429 5.35714V6.42857H5.35714C3.93685 6.43024 2.57521 6.99519 1.57091 7.99948C0.566615 9.00378 0.00166732 10.3654 0 11.7857V50.3571C0.00166732 51.7774 0.566615 53.1391 1.57091 54.1434C2.57521 55.1477 3.93685 55.7126 5.35714 55.7143H13.5139L9.69831 67.161C9.64446 67.322 9.62968 67.4935 9.65518 67.6614C9.68068 67.8293 9.74574 67.9887 9.84498 68.1265C9.94422 68.2643 10.0748 68.3764 10.226 68.4538C10.3771 68.5312 10.5445 68.5715 10.7143 68.5714H19.2857C19.5105 68.5715 19.7297 68.5008 19.912 68.3693C20.0944 68.2379 20.2307 68.0523 20.3017 67.839L21.4861 64.2857H38.5139L39.6983 67.839C39.7693 68.0523 39.9056 68.2379 40.088 68.3694C40.2703 68.5008 40.4895 68.5715 40.7143 68.5714H49.2857C49.4555 68.5715 49.6229 68.5312 49.774 68.4538C49.9252 68.3764 50.0558 68.2643 50.155 68.1265C50.2543 67.9887 50.3193 67.8293 50.3448 67.6614C50.3703 67.4935 50.3555 67.322 50.3017 67.161L46.4861 55.7143H54.6429C56.0631 55.7126 57.4248 55.1477 58.4291 54.1434C59.4334 53.1391 59.9983 51.7774 60 50.3571V11.7857C59.9983 10.3654 59.4334 9.00378 58.4291 7.99948C57.4248 6.99519 56.0631 6.43024 54.6429 6.42857ZM26.7857 5.35714C26.7857 4.50466 27.1244 3.6871 27.7272 3.0843C28.33 2.4815 29.1475 2.14286 30 2.14286C30.8525 2.14286 31.67 2.4815 32.2728 3.0843C32.8756 3.6871 33.2143 4.50466 33.2143 5.35714V6.42857H26.7857V5.35714ZM18.5135 66.4286H12.2011L15.7719 55.7143H22.0853L18.5135 66.4286ZM22.2004 62.1429L24.3433 55.7143H35.6567L37.7996 62.1429H22.2004ZM47.7989 66.4286H41.4865L37.9147 55.7143H44.2281L47.7989 66.4286ZM57.8571 50.3571C57.8562 51.2093 57.5173 52.0264 56.9147 52.629C56.3121 53.2316 55.4951 53.5705 54.6429 53.5714H5.35714C4.50495 53.5705 3.68792 53.2316 3.08533 52.629C2.48273 52.0264 2.14379 51.2093 2.14286 50.3571V11.7857C2.14379 10.9335 2.48273 10.1165 3.08533 9.5139C3.68792 8.9113 4.50495 8.57236 5.35714 8.57143H54.6429C55.4951 8.57236 56.3121 8.9113 56.9147 9.5139C57.5173 10.1165 57.8562 10.9335 57.8571 11.7857V50.3571Z" fill="#9B5BFC"/>
<path d="M53.5714 11.7856H6.42855C6.28783 11.7856 6.14849 11.8133 6.01848 11.8671C5.88848 11.921 5.77035 11.9999 5.67085 12.0994C5.57135 12.1989 5.49243 12.317 5.4386 12.447C5.38477 12.577 5.35708 12.7164 5.35712 12.8571V49.2856C5.35708 49.4264 5.38477 49.5657 5.4386 49.6957C5.49243 49.8257 5.57135 49.9438 5.67085 50.0433C5.77035 50.1428 5.88848 50.2218 6.01848 50.2756C6.14849 50.3294 6.28783 50.3571 6.42855 50.3571H53.5714C53.7121 50.3571 53.8515 50.3294 53.9815 50.2756C54.1115 50.2218 54.2296 50.1428 54.3291 50.0433C54.4286 49.9438 54.5075 49.8257 54.5613 49.6957C54.6152 49.5657 54.6429 49.4264 54.6428 49.2856V12.8571C54.6429 12.7164 54.6152 12.577 54.5613 12.447C54.5075 12.317 54.4286 12.1989 54.3291 12.0994C54.2296 11.9999 54.1115 11.921 53.9815 11.8671C53.8515 11.8133 53.7121 11.7856 53.5714 11.7856ZM52.5 48.2142H7.49997V13.9285H52.5V48.2142Z" fill="#9B5BFC"/>
<path d="M11.7857 45.0001H37.5C37.7119 45.0001 37.919 44.9373 38.0952 44.8196C38.2714 44.7018 38.4087 44.5345 38.4898 44.3387C38.5709 44.143 38.5921 43.9276 38.5508 43.7197C38.5094 43.5119 38.4074 43.321 38.2575 43.1712L12.5432 17.4569C12.3934 17.3071 12.2025 17.205 11.9947 17.1637C11.7869 17.1223 11.5714 17.1435 11.3757 17.2246C11.1799 17.3057 11.0126 17.443 10.8949 17.6192C10.7771 17.7954 10.7143 18.0025 10.7143 18.2144V43.9287C10.7143 44.0694 10.7419 44.2087 10.7958 44.3388C10.8496 44.4688 10.9285 44.5869 11.028 44.6864C11.1275 44.7859 11.2457 44.8648 11.3757 44.9186C11.5057 44.9725 11.645 45.0002 11.7857 45.0001ZM12.8572 38.5715H17.1429V42.8573H12.8572V38.5715ZM34.9135 42.8573H19.2857V37.5001C19.2858 37.3594 19.2581 37.2201 19.2042 37.0901C19.1504 36.96 19.0715 36.8419 18.972 36.7424C18.8725 36.6429 18.7544 36.564 18.6244 36.5102C18.4943 36.4563 18.355 36.4287 18.2143 36.4287H12.8572V20.8009L34.9135 42.8573Z" fill="#9B5BFC"/>
<path d="M28.9285 23.5714H48.2143C48.355 23.5714 48.4943 23.5437 48.6243 23.4899C48.7543 23.4361 48.8725 23.3572 48.972 23.2577C49.0715 23.1582 49.1504 23.04 49.2042 22.91C49.258 22.78 49.2857 22.6407 49.2857 22.5V18.2143C49.2857 18.0735 49.258 17.9342 49.2042 17.8042C49.1504 17.6742 49.0715 17.5561 48.972 17.4566C48.8725 17.3571 48.7543 17.2781 48.6243 17.2243C48.4943 17.1705 48.355 17.1428 48.2143 17.1428H28.9285C28.7878 17.1428 28.6485 17.1705 28.5185 17.2243C28.3885 17.2781 28.2703 17.3571 28.1708 17.4566C28.0713 17.5561 27.9924 17.6742 27.9386 17.8042C27.8848 17.9342 27.8571 18.0735 27.8571 18.2143V22.5C27.8571 22.6407 27.8848 22.78 27.9386 22.91C27.9924 23.04 28.0713 23.1582 28.1708 23.2577C28.2703 23.3572 28.3885 23.4361 28.5185 23.4899C28.6485 23.5437 28.7878 23.5714 28.9285 23.5714ZM30 19.2857H47.1428V21.4285H30V19.2857Z" fill="#9B5BFC"/>
<path d="M28.9285 28.9285H48.2143C48.4984 28.9285 48.7709 28.8156 48.9719 28.6147C49.1728 28.4138 49.2857 28.1412 49.2857 27.8571C49.2857 27.5729 49.1728 27.3004 48.9719 27.0995C48.7709 26.8985 48.4984 26.7856 48.2143 26.7856H28.9285C28.6444 26.7856 28.3719 26.8985 28.1709 27.0995C27.97 27.3004 27.8571 27.5729 27.8571 27.8571C27.8571 28.1412 27.97 28.4138 28.1709 28.6147C28.3719 28.8156 28.6444 28.9285 28.9285 28.9285Z" fill="#9B5BFC"/>
<path d="M48.2143 32.1428H37.5C37.2159 32.1428 36.9433 32.2557 36.7424 32.4566C36.5415 32.6576 36.4286 32.9301 36.4286 33.2143C36.4286 33.4984 36.5415 33.7709 36.7424 33.9719C36.9433 34.1728 37.2159 34.2857 37.5 34.2857H48.2143C48.4985 34.2857 48.771 34.1728 48.9719 33.9719C49.1728 33.7709 49.2857 33.4984 49.2857 33.2143C49.2857 32.9301 49.1728 32.6576 48.9719 32.4566C48.771 32.2557 48.4985 32.1428 48.2143 32.1428Z" fill="#9B5BFC"/>
<path d="M48.2143 37.5H41.7857C41.5016 37.5 41.229 37.6129 41.0281 37.8138C40.8272 38.0147 40.7143 38.2873 40.7143 38.5714C40.7143 38.8556 40.8272 39.1281 41.0281 39.329C41.229 39.53 41.5016 39.6429 41.7857 39.6429H48.2143C48.4985 39.6429 48.771 39.53 48.9719 39.329C49.1728 39.1281 49.2857 38.8556 49.2857 38.5714C49.2857 38.2873 49.1728 38.0147 48.9719 37.8138C48.771 37.6129 48.4985 37.5 48.2143 37.5Z" fill="#9B5BFC"/>
</svg>
