<svg width="45" height="69" viewBox="0 0 45 69" fill="none" xmlns="http://www.w3.org/2000/svg">
<path d="M44.4613 13.2931C44.6247 13.1991 44.7604 13.0638 44.8549 12.9007C44.9493 12.7375 44.999 12.5524 44.9991 12.3639V4.28551C44.9981 3.43333 44.6592 2.61632 44.0566 2.01374C43.454 1.41116 42.637 1.07222 41.7848 1.07129H24.6423C23.7902 1.07222 22.9732 1.41116 22.3706 2.01374C21.768 2.61632 21.4291 3.43333 21.4281 4.28551V12.3639C21.4282 12.5534 21.4785 12.7396 21.5738 12.9033C21.6692 13.0671 21.8063 13.2026 21.9712 13.2962C22.2088 13.434 22.4287 13.6001 22.6261 13.7911C23.2274 14.392 23.567 15.2061 23.5709 16.0562C23.5748 16.9062 23.2428 17.7234 22.6471 18.3299C22.444 18.5292 22.217 18.7025 21.9712 18.8457C21.8063 18.9392 21.6692 19.0748 21.5738 19.2386C21.4784 19.4024 21.4282 19.5885 21.4281 19.778V27.8564C21.4291 28.7086 21.768 29.5256 22.3706 30.1282C22.9732 30.7308 23.7902 31.0697 24.6423 31.0707H41.7848C42.637 31.0697 43.454 30.7308 44.0566 30.1282C44.6592 29.5256 44.9981 28.7086 44.9991 27.8564V19.778C44.9991 19.5885 44.9489 19.4023 44.8535 19.2386C44.7581 19.0748 44.6209 18.9392 44.456 18.8458C44.2185 18.7079 43.9986 18.5417 43.8011 18.3509C43.4518 18.0027 43.1873 17.5788 43.0282 17.1121C42.869 16.6453 42.8195 16.1481 42.8833 15.6591C42.9471 15.1701 43.1227 14.7023 43.3963 14.292C43.6699 13.8818 44.0343 13.5399 44.4613 13.2931ZM36.4278 28.9279H29.9994V12.8568C29.9994 12.0043 30.338 11.1867 30.9408 10.584C31.5436 9.98118 32.3611 9.64254 33.2136 9.64254C34.0661 9.64254 34.8836 9.98118 35.4864 10.584C36.0892 11.1867 36.4278 12.0043 36.4278 12.8568V28.9279ZM42.8563 11.789C42.2409 12.2505 41.7322 12.8391 41.3646 13.5147C40.9971 14.1904 40.7793 14.9373 40.7262 15.7046C40.6731 16.472 40.7859 17.2417 41.0568 17.9616C41.3278 18.6814 41.7506 19.3345 42.2965 19.8764C42.4731 20.0465 42.6601 20.2057 42.8563 20.3529V27.8564C42.856 28.1405 42.743 28.4129 42.5421 28.6137C42.3413 28.8146 42.0689 28.9276 41.7848 28.9279H38.5706V12.8568C38.5706 11.436 38.0062 10.0734 37.0016 9.06876C35.997 8.06413 34.6344 7.49973 33.2136 7.49973C31.7928 7.49973 30.4302 8.06413 29.4256 9.06876C28.421 10.0734 27.8566 11.436 27.8566 12.8568V28.9279H24.6423C24.3583 28.9276 24.0859 28.8146 23.8851 28.6137C23.6842 28.4129 23.5712 28.1405 23.5709 27.8564V20.3524C23.7744 20.1987 23.9683 20.0327 24.1516 19.8554C24.6488 19.3558 25.0427 18.7631 25.3107 18.1112C25.5787 17.4593 25.7157 16.761 25.7137 16.0562C25.7118 15.3513 25.571 14.6538 25.2994 14.0034C25.0278 13.353 24.6306 12.7625 24.1307 12.2656C23.9541 12.0954 23.7671 11.9363 23.5709 11.789V4.28551C23.5712 4.00144 23.6842 3.72909 23.8851 3.52822C24.0859 3.32736 24.3583 3.21439 24.6423 3.2141H41.7848C42.0689 3.21439 42.3413 3.32736 42.5421 3.52822C42.743 3.72909 42.856 4.00144 42.8563 4.28551V11.789Z" fill="#9B5BFC"/>
<path d="M43.9277 41.0116V39.6421C43.9265 38.5058 43.4745 37.4165 42.6711 36.613C41.8676 35.8096 40.7783 35.3577 39.642 35.3564H26.7852C25.6489 35.3577 24.5596 35.8096 23.7561 36.613C22.9527 37.4165 22.5007 38.5058 22.4995 39.6421V41.0115C22.1749 41.1981 21.905 41.4667 21.717 41.7905C21.5289 42.1143 21.4293 42.4818 21.4281 42.8563V59.9988C21.4293 60.3732 21.5289 60.7408 21.717 61.0646C21.905 61.3884 22.1749 61.657 22.4995 61.8436V63.213C22.5007 64.3493 22.9527 65.4386 23.7561 66.2421C24.5596 67.0455 25.6489 67.4974 26.7852 67.4986H39.642C40.7783 67.4974 41.8676 67.0455 42.6711 66.2421C43.4745 65.4386 43.9265 64.3493 43.9277 63.213V61.8435C44.2523 61.6569 44.5221 61.3882 44.7102 61.0645C44.8982 60.7407 44.9978 60.3732 44.9991 59.9988V42.8563C44.9978 42.4819 44.8982 42.1144 44.7102 41.7906C44.5221 41.4668 44.2523 41.1982 43.9277 41.0116ZM23.5709 59.9988V55.8258L42.8572 57.7543L42.8573 59.9988H23.5709ZM42.8563 42.8563L42.8565 47.0294L23.5709 45.1008V42.8563H42.8563ZM23.5709 53.672V47.2545L42.8567 49.1831L42.857 55.6007L23.5709 53.672ZM26.7852 37.4993H39.642C40.2101 37.4999 40.7548 37.7259 41.1565 38.1276C41.5582 38.5293 41.7842 39.074 41.7848 39.6421V40.7135H24.6423V39.6421C24.643 39.074 24.869 38.5293 25.2707 38.1276C25.6724 37.7259 26.2171 37.4999 26.7852 37.4993ZM39.642 65.3558H26.7852C26.2171 65.3552 25.6724 65.1292 25.2707 64.7275C24.869 64.3258 24.643 63.7811 24.6423 63.213V62.1416H41.7848V63.213C41.7842 63.7811 41.5582 64.3258 41.1565 64.7275C40.7548 65.1292 40.2101 65.3552 39.642 65.3558Z" fill="#9B5BFC"/>
<path d="M17.1425 10.7141C17.1425 10.4299 17.0296 10.1574 16.8287 9.95646C16.6278 9.75554 16.3552 9.64266 16.0711 9.64266V7.49984C16.0711 5.51076 15.2809 3.60315 13.8744 2.19665C12.4679 0.79016 10.5603 0 8.57125 0C6.58217 0 4.67455 0.79016 3.26806 2.19665C1.86157 3.60315 1.07141 5.51076 1.07141 7.49984V9.64266C0.787252 9.64266 0.514735 9.75554 0.313808 9.95646C0.11288 10.1574 0 10.4299 0 10.7141C0 10.9982 0.11288 11.2707 0.313808 11.4717C0.514735 11.6726 0.787252 11.7855 1.07141 11.7855V16.0711C0.787252 16.0711 0.514735 16.184 0.313808 16.3849C0.11288 16.5858 0 16.8583 0 17.1425C0 17.4267 0.11288 17.6992 0.313808 17.9001C0.514735 18.101 0.787252 18.2139 1.07141 18.2139V54.6417C1.07141 54.6566 1.07932 54.669 1.0799 54.6838C1.08459 54.7953 1.10684 54.9054 1.14583 55.01C1.15459 55.0338 1.15995 55.0577 1.17035 55.0806C1.17623 55.0937 1.17794 55.108 1.18441 55.1209L7.61285 67.9778C7.70187 68.1558 7.83867 68.3054 8.00795 68.41C8.17722 68.5146 8.37227 68.57 8.57125 68.57C8.77023 68.57 8.96528 68.5146 9.13455 68.41C9.30383 68.3054 9.44063 68.1558 9.52965 67.9778L15.9581 55.1209C15.9645 55.108 15.9663 55.0937 15.9721 55.0806C15.9826 55.0577 15.9879 55.0338 15.9967 55.01C16.0357 54.9054 16.0579 54.7953 16.0626 54.6838C16.0632 54.669 16.0711 54.6566 16.0711 54.6417V18.2139C16.3552 18.2139 16.6278 18.101 16.8287 17.9001C17.0296 17.6992 17.1425 17.4267 17.1425 17.1425C17.1425 16.8583 17.0296 16.5858 16.8287 16.3849C16.6278 16.184 16.3552 16.0711 16.0711 16.0711V11.7855C16.3552 11.7855 16.6278 11.6726 16.8287 11.4717C17.0296 11.2707 17.1425 10.9982 17.1425 10.7141ZM8.57125 2.14281C9.99151 2.14448 11.3531 2.70941 12.3574 3.71369C13.3617 4.71797 13.9266 6.07958 13.9283 7.49984V9.64266H3.21422V7.49984C3.21589 6.07958 3.78082 4.71797 4.7851 3.71369C5.78938 2.70941 7.15099 2.14448 8.57125 2.14281ZM13.9283 53.5703H3.21422V18.2139H13.9283V53.5703ZM8.57125 65.1031L7.35225 62.665C7.36179 62.6483 7.37808 62.6383 7.38684 62.6208C7.49683 62.4008 7.6659 62.2159 7.87509 62.0866C8.08428 61.9573 8.32534 61.8888 8.57125 61.8888C8.81716 61.8888 9.05822 61.9573 9.26741 62.0866C9.4766 62.2159 9.64567 62.4008 9.75566 62.6208C9.76455 62.6386 9.77881 62.6512 9.78855 62.6683L8.57125 65.1031ZM10.8304 60.5845C10.202 60.0436 9.4004 59.7461 8.57125 59.7461C7.7421 59.7461 6.94048 60.0436 6.3121 60.5845L3.87652 55.7131H13.266L10.8304 60.5845ZM13.9283 16.0711H3.21422V11.7855H13.9283V16.0711Z" fill="#9B5BFC"/>
</svg>
