<svg width="67" height="69" viewBox="0 0 67 69" fill="none" xmlns="http://www.w3.org/2000/svg">
<path d="M50.3561 18.2139H24.6423C24.0742 18.2144 23.5295 18.4404 23.1278 18.8421C22.726 19.2438 22.5001 19.7885 22.4995 20.3567V33.2136C22.5001 33.7817 22.726 34.3264 23.1278 34.7281C23.5295 35.1299 24.0742 35.3558 24.6423 35.3564H50.3561C50.9242 35.3557 51.4689 35.1297 51.8706 34.728C52.2723 34.3263 52.4983 33.7817 52.4989 33.2136V20.3567C52.4983 19.7886 52.2723 19.2439 51.8706 18.8422C51.4689 18.4405 50.9242 18.2145 50.3561 18.2139ZM24.6423 33.2136V20.3567H50.3561L50.3572 33.2136H24.6423Z" fill="#9B5BFC"/>
<path d="M63.213 17.1425H59.9987V7.49984C59.9964 5.51147 59.2055 3.60521 57.7995 2.19922C56.3935 0.793224 54.4873 0.00231949 52.4989 0L10.7141 0C9.00971 0.00186321 7.37569 0.679741 6.17053 1.8849C4.96537 3.09007 4.28749 4.72408 4.28562 6.42844V19.2853H1.07141C0.787252 19.2853 0.514735 19.3982 0.313808 19.5991C0.11288 19.8 0 20.0726 0 20.3567C0 20.6409 0.11288 20.9134 0.313808 21.1143C0.514735 21.3152 0.787252 21.4281 1.07141 21.4281H4.28562V32.1422H1.07141C0.787252 32.1422 0.514735 32.2551 0.313808 32.456C0.11288 32.6569 0 32.9294 0 33.2136C0 33.4977 0.11288 33.7703 0.313808 33.9712C0.514735 34.1721 0.787252 34.285 1.07141 34.285H4.28562V44.9991H1.07141C0.787252 44.9991 0.514735 45.1119 0.313808 45.3129C0.11288 45.5138 0 45.7863 0 46.0705C0 46.3546 0.11288 46.6271 0.313808 46.8281C0.514735 47.029 0.787252 47.1419 1.07141 47.1419H4.28562V57.8559H1.07141C0.787252 57.8559 0.514735 57.9688 0.313808 58.1697C0.11288 58.3707 0 58.6432 0 58.9273C0 59.2115 0.11288 59.484 0.313808 59.6849C0.514735 59.8859 0.787252 59.9987 1.07141 59.9987H4.28562V62.1416C4.28749 63.8459 4.96537 65.4799 6.17053 66.6851C7.37569 67.8903 9.00971 68.5681 10.7141 68.57H52.4989C54.4873 68.5677 56.3935 67.7768 57.7995 66.3708C59.2055 64.9648 59.9964 63.0585 59.9987 61.0702V52.335L61.9501 52.0098C63.2026 51.8048 64.3411 51.1603 65.1616 50.1919C65.982 49.2236 66.4307 47.9946 66.4272 46.7254V20.3567C66.4263 19.5045 66.0873 18.6875 65.4847 18.0849C64.8822 17.4824 64.0651 17.1434 63.213 17.1425ZM64.2844 20.3567V32.7972C64.2863 33.5586 64.0171 34.2958 63.525 34.8768C63.0328 35.4578 62.3499 35.8447 61.5985 35.968L59.9987 36.2343V19.2853H63.213C63.497 19.2856 63.7694 19.3986 63.9703 19.5994C64.1711 19.8003 64.2841 20.0727 64.2844 20.3567ZM10.7141 2.14281H52.4989C53.9192 2.14448 55.2808 2.70941 56.2851 3.71369C57.2893 4.71797 57.8543 6.07958 57.8559 7.49984V12.9753C57.2369 12.3444 56.5115 11.8274 55.7131 11.4481V8.57125C55.7122 7.71907 55.3733 6.90206 54.7707 6.29948C54.1681 5.6969 53.3511 5.35796 52.4989 5.35703H13.9283C13.0761 5.35796 12.2591 5.6969 11.6565 6.29948C11.0539 6.90206 10.715 7.71907 10.7141 8.57125V10.7141C9.57744 10.7141 8.48738 10.2625 7.68367 9.45883C6.87996 8.65512 6.42844 7.56506 6.42844 6.42844C6.42844 5.29182 6.87996 4.20175 7.68367 3.39804C8.48738 2.59433 9.57744 2.14281 10.7141 2.14281ZM12.8569 10.7141V8.57125C12.8572 8.28721 12.9702 8.01491 13.1711 7.81406C13.3719 7.61321 13.6442 7.50021 13.9283 7.49984H52.4989C52.783 7.50013 53.0553 7.6131 53.2562 7.81396C53.4571 8.01483 53.57 8.28718 53.5703 8.57125V10.7997C53.2157 10.7455 52.8576 10.7169 52.4989 10.7141H12.8569ZM10.7141 66.4272C9.57784 66.4259 8.48853 65.974 7.6851 65.1705C6.88167 64.3671 6.42974 63.2778 6.42844 62.1416V59.9987H11.7855C12.0696 59.9987 12.3421 59.8859 12.5431 59.6849C12.744 59.484 12.8569 59.2115 12.8569 58.9273C12.8569 58.6432 12.744 58.3707 12.5431 58.1697C12.3421 57.9688 12.0696 57.8559 11.7855 57.8559H6.42844V47.1419H11.7855C12.0696 47.1419 12.3421 47.029 12.5431 46.8281C12.744 46.6271 12.8569 46.3546 12.8569 46.0705C12.8569 45.7863 12.744 45.5138 12.5431 45.3129C12.3421 45.1119 12.0696 44.9991 11.7855 44.9991H6.42844V34.285H11.7855C12.0696 34.285 12.3421 34.1721 12.5431 33.9712C12.744 33.7703 12.8569 33.4977 12.8569 33.2136C12.8569 32.9294 12.744 32.6569 12.5431 32.456C12.3421 32.2551 12.0696 32.1422 11.7855 32.1422H6.42844V21.4281H11.7855C12.0696 21.4281 12.3421 21.3152 12.5431 21.1143C12.744 20.9134 12.8569 20.6409 12.8569 20.3567C12.8569 20.0726 12.744 19.8 12.5431 19.5991C12.3421 19.3982 12.0696 19.2853 11.7855 19.2853H6.42844V11.2064C7.60335 12.2682 9.13044 12.8563 10.7141 12.8569H14.9997V66.4272H10.7141ZM57.8559 61.0702C57.8543 62.4904 57.2893 63.852 56.2851 64.8563C55.2808 65.8606 53.9192 66.4255 52.4989 66.4272H17.1425V12.8569H52.4989C53.9192 12.8585 55.2808 13.4235 56.2851 14.4278C57.2893 15.432 57.8543 16.7936 57.8559 18.2139V61.0702ZM61.5985 49.8962L59.9987 50.1629V38.4067L61.9501 38.0815C62.7985 37.9367 63.5994 37.589 64.2844 37.0678V46.7255C64.2863 47.4869 64.0171 48.2241 63.525 48.8051C63.0328 49.3861 62.3499 49.7729 61.5985 49.8962Z" fill="#9B5BFC"/>
<path d="M33.2136 59.9988H22.4995C22.2154 59.9988 21.9429 60.1117 21.7419 60.3126C21.541 60.5135 21.4281 60.786 21.4281 61.0702C21.4281 61.3543 21.541 61.6269 21.7419 61.8278C21.9429 62.0287 22.2154 62.1416 22.4995 62.1416H33.2136C33.4978 62.1416 33.7703 62.0287 33.9712 61.8278C34.1721 61.6269 34.285 61.3543 34.285 61.0702C34.285 60.786 34.1721 60.5135 33.9712 60.3126C33.7703 60.1117 33.4978 59.9988 33.2136 59.9988Z" fill="#9B5BFC"/>
<path d="M22.4995 55.7131H28.928C29.2121 55.7131 29.4846 55.6002 29.6856 55.3993C29.8865 55.1984 29.9994 54.9259 29.9994 54.6417C29.9994 54.3576 29.8865 54.085 29.6856 53.8841C29.4846 53.6832 29.2121 53.5703 28.928 53.5703H22.4995C22.2154 53.5703 21.9429 53.6832 21.7419 53.8841C21.541 54.085 21.4281 54.3576 21.4281 54.6417C21.4281 54.9259 21.541 55.1984 21.7419 55.3993C21.9429 55.6002 22.2154 55.7131 22.4995 55.7131Z" fill="#9B5BFC"/>
</svg>
