<svg width="71" height="69" viewBox="0 0 71 69" fill="none" xmlns="http://www.w3.org/2000/svg">
<path d="M67.464 55.2984V14.3776C67.4623 12.9115 66.8792 11.506 65.8425 10.4693C64.8058 9.43262 63.4003 8.84946 61.9342 8.84774H58.6163V5.52984C58.6163 4.06323 58.0337 2.6567 56.9966 1.61965C55.9596 0.582606 54.5531 0 53.0865 0C51.6198 0 50.2133 0.582606 49.1763 1.61965C48.1392 2.6567 47.5566 4.06323 47.5566 5.52984V8.84774H23.2253V5.52984C23.2253 4.06323 22.6427 2.6567 21.6057 1.61965C20.5686 0.582606 19.1621 0 17.6955 0C16.2289 0 14.8223 0.582606 13.7853 1.61965C12.7483 2.6567 12.1656 4.06323 12.1656 5.52984V8.84774H8.84774C7.38167 8.84946 5.97613 9.43262 4.93946 10.4693C3.90278 11.506 3.31962 12.9115 3.3179 14.3776V55.2984C2.43824 55.2993 1.59487 55.6492 0.972852 56.2712C0.350832 56.8933 0.000960196 57.7366 0 58.6163L0 65.2521C0.000960196 66.1318 0.350832 66.9751 0.972852 67.5972C1.59487 68.2192 2.43824 68.569 3.3179 68.57H67.464C68.3437 68.569 69.1871 68.2192 69.8091 67.5972C70.4311 66.9751 70.781 66.1318 70.7819 65.2521V58.6163C70.781 57.7366 70.4311 56.8933 69.8091 56.2712C69.1871 55.6492 68.3437 55.2993 67.464 55.2984ZM49.7686 5.52984C49.7686 4.64988 50.1181 3.80595 50.7403 3.18373C51.3626 2.5615 52.2065 2.21194 53.0865 2.21194C53.9664 2.21194 54.8103 2.5615 55.4326 3.18373C56.0548 3.80595 56.4044 4.64988 56.4044 5.52984V8.84774H49.7686V5.52984ZM14.3776 5.52984C14.3776 4.64988 14.7271 3.80595 15.3494 3.18373C15.9716 2.5615 16.8155 2.21194 17.6955 2.21194C18.5754 2.21194 19.4194 2.5615 20.0416 3.18373C20.6638 3.80595 21.0134 4.64988 21.0134 5.52984V8.84774H14.3776V5.52984ZM5.52984 14.3776C5.5308 13.4979 5.88067 12.6545 6.50269 12.0325C7.12471 11.4105 7.96807 11.0606 8.84774 11.0597H61.9342C62.8139 11.0606 63.6572 11.4105 64.2792 12.0325C64.9013 12.6545 65.2511 13.4979 65.2521 14.3776V55.2984H61.9342V15.4835C61.9342 15.1902 61.8177 14.9089 61.6103 14.7015C61.4029 14.4941 61.1215 14.3776 60.8282 14.3776H9.95371C9.66039 14.3776 9.37908 14.4941 9.17167 14.7015C8.96426 14.9089 8.84774 15.1902 8.84774 15.4835V55.2984H5.52984V14.3776ZM56.4044 46.4506H36.4969C36.2036 46.4506 35.9223 46.5672 35.7149 46.7746C35.5075 46.982 35.391 47.2633 35.391 47.5566V55.2984H11.0597V16.5895H59.7223V55.2984H57.5103V47.5566C57.5103 47.2633 57.3938 46.982 57.1864 46.7746C56.979 46.5672 56.6977 46.4506 56.4044 46.4506ZM55.2984 48.6626V55.2984H37.6029V48.6626H55.2984ZM68.57 65.2521C68.5696 65.5453 68.453 65.8264 68.2457 66.0337C68.0383 66.241 67.7572 66.3577 67.464 66.3581H3.3179C3.0247 66.3577 2.74361 66.241 2.53629 66.0337C2.32896 65.8264 2.21232 65.5453 2.21194 65.2521V58.6163C2.21232 58.3231 2.32896 58.042 2.53629 57.8347C2.74361 57.6273 3.0247 57.5107 3.3179 57.5103H67.464C67.7572 57.5107 68.0383 57.6273 68.2457 57.8347C68.453 58.042 68.5696 58.3231 68.57 58.6163V65.2521Z" fill="#9B5BFC"/>
<path d="M17.7176 4.42383H17.7063C17.412 4.42533 17.1302 4.5435 16.9229 4.75242C16.7156 4.96134 16.5996 5.24396 16.6003 5.5383C16.6011 5.83264 16.7185 6.11466 16.9269 6.32252C17.1353 6.53039 17.4176 6.64712 17.712 6.64712C18.0063 6.64712 18.2886 6.53039 18.497 6.32252C18.7054 6.11466 18.8229 5.83264 18.8236 5.5383C18.8244 5.24396 18.7084 4.96134 18.501 4.75242C18.2937 4.5435 18.012 4.42533 17.7176 4.42383Z" fill="#9B5BFC"/>
<path d="M53.1086 4.42383H53.0973C52.8029 4.42533 52.5212 4.5435 52.3139 4.75242C52.1065 4.96134 51.9905 5.24396 51.9913 5.5383C51.992 5.83264 52.1095 6.11466 52.3179 6.32252C52.5263 6.53039 52.8086 6.64712 53.1029 6.64712C53.3973 6.64712 53.6796 6.53039 53.888 6.32252C54.0964 6.11466 54.2138 5.83264 54.2146 5.5383C54.2153 5.24396 54.0993 4.96134 53.892 4.75242C53.6846 4.5435 53.4029 4.42533 53.1086 4.42383Z" fill="#9B5BFC"/>
<path d="M50.8745 28.7551C50.5812 28.7551 50.2999 28.8717 50.0925 29.0791C49.8851 29.2865 49.7686 29.5678 49.7686 29.8611V30.4588C48.8152 29.6007 47.6334 29.0372 46.3664 28.8367C45.0994 28.6362 43.8015 28.8072 42.6296 29.329C41.4578 29.8509 40.4624 30.7012 39.7638 31.777C39.0652 32.8529 38.6934 34.1082 38.6934 35.3909C38.6934 36.6737 39.0652 37.929 39.7638 39.0048C40.4624 40.0807 41.4578 40.931 42.6296 41.4528C43.8015 41.9747 45.0994 42.1457 46.3664 41.9452C47.6334 41.7447 48.8152 41.1812 49.7686 40.323V40.9208C49.7686 41.2141 49.8851 41.4954 50.0925 41.7028C50.2999 41.9102 50.5812 42.0267 50.8745 42.0267C51.1679 42.0267 51.4492 41.9102 51.6566 41.7028C51.864 41.4954 51.9805 41.2141 51.9805 40.9208V29.8611C51.9805 29.5678 51.864 29.2865 51.6566 29.0791C51.4492 28.8717 51.1679 28.7551 50.8745 28.7551ZM45.3447 39.8148C44.4697 39.8148 43.6144 39.5554 42.8869 39.0693C42.1594 38.5832 41.5924 37.8922 41.2576 37.0839C40.9227 36.2755 40.8351 35.386 41.0058 34.5279C41.1765 33.6697 41.5979 32.8815 42.2166 32.2628C42.8352 31.6441 43.6235 31.2228 44.4816 31.0521C45.3398 30.8814 46.2293 30.969 47.0376 31.3038C47.846 31.6386 48.5369 32.2057 49.023 32.9332C49.5091 33.6607 49.7686 34.516 49.7686 35.3909C49.7672 36.5638 49.3007 37.6883 48.4714 38.5176C47.642 39.347 46.5176 39.8135 45.3447 39.8148Z" fill="#9B5BFC"/>
<path d="M28.6801 20.6127C28.5993 20.405 28.4577 20.2265 28.2737 20.1007C28.0898 19.9748 27.8721 19.9075 27.6492 19.9075C27.4263 19.9075 27.2086 19.9748 27.0247 20.1007C26.8407 20.2265 26.6991 20.405 26.6183 20.6127L18.8765 40.5202C18.7703 40.7936 18.7769 41.098 18.8951 41.3665C19.0133 41.635 19.2333 41.8455 19.5067 41.9518C19.6421 42.0044 19.7865 42.0298 19.9318 42.0266C20.077 42.0234 20.2201 41.9917 20.3531 41.9331C20.6215 41.815 20.8321 41.595 20.9383 41.3216L22.8145 36.497H32.4839L34.3601 41.3216C34.4127 41.4569 34.4915 41.5806 34.5919 41.6856C34.6923 41.7905 34.8124 41.8746 34.9454 41.9331C35.0783 41.9917 35.2214 42.0234 35.3667 42.0266C35.5119 42.0298 35.6563 42.0044 35.7917 41.9518C35.9271 41.8991 36.0507 41.8204 36.1557 41.72C36.2606 41.6195 36.3447 41.4994 36.4033 41.3665C36.4618 41.2336 36.4936 41.0904 36.4967 40.9452C36.4999 40.8 36.4745 40.6555 36.4219 40.5202L28.6801 20.6127ZM23.6747 34.2851L27.6492 24.0646L31.6237 34.2851H23.6747Z" fill="#9B5BFC"/>
</svg>
