<svg width="69" height="69" viewBox="0 0 69 69" fill="none" xmlns="http://www.w3.org/2000/svg">
<path d="M65.026 58.9481C63.3608 54.8101 63.3606 50.1884 65.0257 46.0503C65.9837 46.0064 66.8875 45.5936 67.5481 44.8984C68.2087 44.2032 68.5748 43.2794 68.5698 42.3204C68.5686 41.3263 68.1732 40.3732 67.4702 39.6702C66.7672 38.9672 65.8141 38.5717 64.8199 38.5705H46.2597C47.551 37.282 48.622 35.7902 49.43 34.1547C52.5208 28.1484 53.7632 19.426 50.1567 14.3776C48.7146 12.1829 46.5483 10.5637 44.035 9.80211C44.6643 8.78929 44.9981 7.62082 44.999 6.42842V3.21421C44.999 2.93006 44.8861 2.65754 44.6851 2.45661C44.4842 2.25569 44.2117 2.14281 43.9275 2.14281H40.7133C39.7204 2.14201 38.7408 2.37216 37.8521 2.81505C37.759 2.14032 37.6304 1.47099 37.4667 0.809831C37.4084 0.578437 37.2745 0.373119 37.0863 0.226421C36.8981 0.0797234 36.6663 3.95742e-05 36.4277 0L29.9993 0C29.8168 2.41939e-05 29.6374 0.0466517 29.478 0.135462C29.3186 0.224273 29.1845 0.352323 29.0885 0.507474C28.9924 0.662625 28.9376 0.839735 28.9292 1.02201C28.9208 1.20429 28.959 1.3857 29.0404 1.54904C30.4025 4.26904 31.2701 7.20954 31.6028 10.2333L31.6088 10.2875C29.6996 9.53386 27.6279 9.28682 25.595 9.57044C24.1332 9.83902 22.7418 10.404 21.5067 11.2307C20.2716 12.0574 19.2188 13.1282 18.4131 14.3772C14.8066 19.426 16.049 28.1485 19.1398 34.1547C19.9478 35.7902 21.0188 37.282 22.3101 38.5705H13.9282C10.2342 38.5705 6.69154 40.038 4.07949 42.65C1.46744 45.2621 0 48.8048 0 52.4988C0 56.1928 1.46744 59.7355 4.07949 62.3475C6.69154 64.9596 10.2342 66.427 13.9282 66.427H23.5709V67.4984C23.5709 67.6735 23.6138 67.846 23.6959 68.0006C23.778 68.1553 23.8967 68.2875 24.0417 68.3857C24.1867 68.4839 24.3536 68.545 24.5277 68.5638C24.7018 68.5826 24.8778 68.5584 25.0404 68.4935L29.9993 66.5097L34.9582 68.4935C35.1208 68.5584 35.2969 68.5826 35.4709 68.5638C35.645 68.545 35.8119 68.4839 35.9569 68.3857C36.1019 68.2875 36.2206 68.1553 36.3027 68.0006C36.3848 67.846 36.4277 67.6735 36.4277 67.4984V66.427H64.8199C65.7959 66.4291 66.7341 66.0497 67.4343 65.3699C68.1346 64.6901 68.5416 63.7636 68.5685 62.788C68.5953 61.8124 68.24 60.8649 67.5782 60.1475C66.9164 59.4302 66.0006 58.9998 65.026 58.9481ZM21.4281 51.4274C21.1439 51.4274 20.8714 51.5403 20.6705 51.7412C20.4695 51.9421 20.3567 52.2146 20.3567 52.4988C20.3567 52.7829 20.4695 53.0554 20.6705 53.2564C20.8714 53.4573 21.1439 53.5702 21.4281 53.5702H23.5709V58.9272H21.4281C19.7231 58.9272 18.0881 58.2499 16.8825 57.0444C15.6769 55.8388 14.9997 54.2037 14.9997 52.4988C14.9997 50.7939 15.6769 49.1588 16.8825 47.9532C18.0881 46.7476 19.7231 46.0704 21.4281 46.0704H62.7252C62.1222 47.7973 61.7666 49.6008 61.6689 51.4274H21.4281ZM36.4277 53.5702H61.6689C61.7666 55.3967 62.1222 57.2003 62.7252 58.9272H36.4277V53.5702ZM40.7133 4.28561H42.8561V6.42842C42.8517 6.99129 42.7361 7.54773 42.5159 8.06574C42.2957 8.58375 41.9752 9.05312 41.5729 9.44684C40.2063 9.43197 38.8467 9.64582 37.5506 10.0795L37.5928 9.89013C37.8987 8.48168 38.054 7.04472 38.0563 5.60344C38.0563 5.48247 38.0474 5.36227 38.0452 5.24149C38.7979 4.62502 39.7404 4.28737 40.7133 4.28561ZM33.7325 9.99785C33.4365 7.29241 32.7427 4.64551 31.6734 2.14281H35.5719C35.7998 3.28223 35.9142 4.44144 35.9134 5.60344C35.9114 6.89044 35.7726 8.17358 35.4996 9.4313L35.1273 11.1038C34.8029 11.2748 34.5083 11.4389 34.2849 11.5756C34.1715 11.5062 34.0235 11.4231 33.8832 11.343L33.7325 9.99785ZM21.0451 33.1743C18.3195 27.8785 17.0823 19.9272 20.1573 15.6217C20.8006 14.6095 21.6431 13.7389 22.6336 13.0627C23.6241 12.3866 24.7418 11.9191 25.9188 11.6887C29.9162 11.04 33.6158 13.6949 33.6524 13.7216C33.8365 13.8556 34.0583 13.9276 34.2859 13.9275C34.5135 13.9273 34.7352 13.8548 34.919 13.7205C34.9561 13.6933 38.6155 11.0436 42.6359 11.6865C43.8159 11.9148 44.9369 12.3817 45.9302 13.0584C46.9235 13.7351 47.7682 14.6076 48.4124 15.6222C51.4875 19.9272 50.2503 27.8785 47.5247 33.1743C45.8119 36.5025 43.6121 38.5705 41.7847 38.5705H26.7851C24.9577 38.5705 22.7579 36.5025 21.0451 33.1743ZM13.9282 64.2842C10.8026 64.2842 7.80488 63.0425 5.59468 60.8323C3.38448 58.6221 2.14281 55.6245 2.14281 52.4988C2.14281 49.3731 3.38448 46.3754 5.59468 44.1652C7.80488 41.955 10.8026 40.7133 13.9282 40.7133H14.0095C12.0142 41.9666 10.37 43.7064 9.23136 45.7693C8.0927 47.8322 7.49688 50.1507 7.49983 52.507C7.50279 54.8633 8.10441 57.1802 9.24825 59.2402C10.3921 61.3003 12.0406 63.0359 14.0391 64.2842H13.9282ZM21.4281 64.2842C18.3024 64.2842 15.3047 63.0425 13.0945 60.8323C10.8843 58.6221 9.64263 55.6245 9.64263 52.4988C9.64263 49.3731 10.8843 46.3754 13.0945 44.1652C15.3047 41.955 18.3024 40.7133 21.4281 40.7133H64.8199C65.2461 40.7133 65.6549 40.8827 65.9563 41.184C66.2577 41.4854 66.427 41.8942 66.427 42.3204C66.427 42.7467 66.2577 43.1554 65.9563 43.4568C65.6549 43.7582 65.2461 43.9275 64.8199 43.9275H21.4281C19.1548 43.9275 16.9747 44.8306 15.3673 46.438C13.7599 48.0454 12.8568 50.2255 12.8568 52.4988C12.8568 54.772 13.7599 56.9521 15.3673 58.5596C16.9747 60.167 19.1548 61.07 21.4281 61.07H23.5709V64.2842H21.4281ZM34.2849 65.916L30.3974 64.3606C30.1418 64.2588 29.8568 64.2588 29.6012 64.3606L25.7137 65.916V53.5702H34.2849V65.916ZM65.9593 63.8155C65.6559 64.1154 65.2466 64.2838 64.8199 64.2842H36.4277V61.07H64.2811L64.2847 61.0705L64.2872 61.07H64.8199C65.1377 61.0707 65.4481 61.1654 65.7122 61.3421C65.9763 61.5189 66.1822 61.7698 66.304 62.0633C66.4258 62.3568 66.4581 62.6797 66.3968 62.9915C66.3354 63.3033 66.1832 63.59 65.9593 63.8155Z" fill="#9B5BFC"/>
</svg>
