<svg width="278" height="239" viewBox="0 0 278 239" fill="none" xmlns="http://www.w3.org/2000/svg">
<path d="M66.2987 119.5L71.8902 119.5C87.067 119.5 100.646 125.362 112.628 137.085C124.876 148.542 131 162.93 131 180.249C131 197.302 124.876 211.423 112.628 222.614C100.646 233.538 85.7357 239 67.8962 239C48.4592 239 32.2174 231.273 19.1706 215.819C6.39012 200.099 -0.000123228 177.851 -0.000113165 149.075C-0.000103941 122.697 5.59137 98.0513 16.7743 75.1371C28.2235 51.9565 42.0691 33.7051 58.3109 20.383C74.8191 6.79434 89.4634 3.12846e-05 102.244 3.57538e-05C110.232 3.85471e-05 116.622 2.66448 121.415 7.99335C126.474 13.0558 129.003 19.4504 129.003 27.1773C129.003 39.1673 123.944 47.8267 113.826 53.1555C99.7144 60.8824 88.5315 69.9415 80.2774 80.3328C72.0233 90.7241 67.3638 103.78 66.2987 119.5Z" fill="#F4F5C0"/>
<path d="M212.805 119.5L218.439 119.5C233.732 119.5 247.415 125.362 259.488 137.085C271.829 148.542 278 162.93 278 180.249C278 197.302 271.829 211.423 259.488 222.614C247.415 233.538 232.39 239 214.415 239C194.829 239 178.463 231.273 165.317 215.819C152.439 200.099 146 177.851 146 149.075C146 122.697 151.634 98.0513 162.902 75.1371C174.439 51.9565 188.39 33.7051 204.756 20.383C221.39 6.79434 236.146 3.15234e-05 249.024 3.60267e-05C257.073 3.88413e-05 263.512 2.66448 268.341 7.99335C273.439 13.0558 275.988 19.4504 275.988 27.1773C275.988 39.1673 270.89 47.8267 260.695 53.1555C246.476 60.8824 235.207 69.9415 226.89 80.3328C218.573 90.7241 213.878 103.78 212.805 119.5Z" fill="#F4F5C0"/>
</svg>
