<svg width="40" height="41" viewBox="0 0 40 41" fill="none" xmlns="http://www.w3.org/2000/svg">
<path d="M38.125 29.168H1.875C1.37789 29.1685 0.901287 29.3662 0.549774 29.7177C0.198261 30.0693 0.000542622 30.5459 0 31.043L0 38.543C0.000542622 39.0401 0.198261 39.5167 0.549774 39.8682C0.901287 40.2197 1.37789 40.4174 1.875 40.418H38.125C38.6221 40.4174 39.0987 40.2197 39.4502 39.8682C39.8017 39.5167 39.9995 39.0401 40 38.543V31.043C39.9995 30.5459 39.8017 30.0693 39.4502 29.7177C39.0987 29.3662 38.6221 29.1685 38.125 29.168ZM38.75 38.543C38.7498 38.7087 38.6839 38.8676 38.5668 38.9847C38.4496 39.1019 38.2907 39.1678 38.125 39.168H1.875C1.70929 39.1678 1.55042 39.1019 1.43324 38.9847C1.31607 38.8676 1.25017 38.7087 1.25 38.543V31.043C1.25017 30.8773 1.31607 30.7184 1.43324 30.6012C1.55042 30.484 1.70929 30.4181 1.875 30.418H4.375V32.918C4.375 33.0837 4.44085 33.2427 4.55806 33.3599C4.67527 33.4771 4.83424 33.543 5 33.543C5.16576 33.543 5.32473 33.4771 5.44194 33.3599C5.55915 33.2427 5.625 33.0837 5.625 32.918V30.418H8.125V32.293C8.125 32.4587 8.19085 32.6177 8.30806 32.7349C8.42527 32.8521 8.58424 32.918 8.75 32.918C8.91576 32.918 9.07473 32.8521 9.19194 32.7349C9.30915 32.6177 9.375 32.4587 9.375 32.293V30.418H11.875V32.918C11.875 33.0837 11.9408 33.2427 12.0581 33.3599C12.1753 33.4771 12.3342 33.543 12.5 33.543C12.6658 33.543 12.8247 33.4771 12.9419 33.3599C13.0592 33.2427 13.125 33.0837 13.125 32.918V30.418H15.625V32.293C15.625 32.4587 15.6908 32.6177 15.8081 32.7349C15.9253 32.8521 16.0842 32.918 16.25 32.918C16.4158 32.918 16.5747 32.8521 16.6919 32.7349C16.8092 32.6177 16.875 32.4587 16.875 32.293V30.418H19.375V32.918C19.375 33.0837 19.4408 33.2427 19.5581 33.3599C19.6753 33.4771 19.8342 33.543 20 33.543C20.1658 33.543 20.3247 33.4771 20.4419 33.3599C20.5592 33.2427 20.625 33.0837 20.625 32.918V30.418H23.125V32.293C23.125 32.4587 23.1908 32.6177 23.3081 32.7349C23.4253 32.8521 23.5842 32.918 23.75 32.918C23.9158 32.918 24.0747 32.8521 24.1919 32.7349C24.3092 32.6177 24.375 32.4587 24.375 32.293V30.418H26.875V32.918C26.875 33.0837 26.9408 33.2427 27.0581 33.3599C27.1753 33.4771 27.3342 33.543 27.5 33.543C27.6658 33.543 27.8247 33.4771 27.9419 33.3599C28.0592 33.2427 28.125 33.0837 28.125 32.918V30.418H30.625V32.293C30.625 32.4587 30.6908 32.6177 30.8081 32.7349C30.9253 32.8521 31.0842 32.918 31.25 32.918C31.4158 32.918 31.5747 32.8521 31.6919 32.7349C31.8092 32.6177 31.875 32.4587 31.875 32.293V30.418H34.375V32.918C34.375 33.0837 34.4408 33.2427 34.5581 33.3599C34.6753 33.4771 34.8342 33.543 35 33.543C35.1658 33.543 35.3247 33.4771 35.4419 33.3599C35.5592 33.2427 35.625 33.0837 35.625 32.918V30.418H38.125C38.2907 30.4181 38.4496 30.484 38.5668 30.6012C38.6839 30.7184 38.7498 30.8773 38.75 31.043V38.543Z" fill="white"/>
<path d="M38.125 18.543H37.4896C37.4969 18.348 37.5 18.1414 37.5 17.918C37.5 13.2767 35.6563 8.82549 32.3744 5.5436C29.0925 2.26171 24.6413 0.417969 20 0.417969C15.3587 0.417969 10.9075 2.26171 7.62563 5.5436C4.34374 8.82549 2.5 13.2767 2.5 17.918C2.5 18.1414 2.50305 18.348 2.51038 18.543H1.875C1.37789 18.5435 0.901287 18.7412 0.549774 19.0927C0.198261 19.4443 0.000542622 19.9209 0 20.418L0 25.418C0.000542622 25.9151 0.198261 26.3917 0.549774 26.7432C0.901287 27.0947 1.37789 27.2924 1.875 27.293H38.125C38.6221 27.2924 39.0987 27.0947 39.4502 26.7432C39.8017 26.3917 39.9995 25.9151 40 25.418V20.418C39.9995 19.9209 39.8017 19.4443 39.4502 19.0927C39.0987 18.7412 38.6221 18.5435 38.125 18.543ZM38.75 25.418C38.7498 25.5837 38.6839 25.7426 38.5668 25.8597C38.4496 25.9769 38.2907 26.0428 38.125 26.043H35.625V24.168C35.625 24.0022 35.5592 23.8432 35.4419 23.726C35.3247 23.6088 35.1658 23.543 35 23.543C34.8342 23.543 34.6753 23.6088 34.5581 23.726C34.4408 23.8432 34.375 24.0022 34.375 24.168V26.043H31.875V24.793C31.875 24.6272 31.8092 24.4682 31.6919 24.351C31.5747 24.2338 31.4158 24.168 31.25 24.168C31.0842 24.168 30.9253 24.2338 30.8081 24.351C30.6908 24.4682 30.625 24.6272 30.625 24.793V26.043H28.125V24.168C28.125 24.0022 28.0592 23.8432 27.9419 23.726C27.8247 23.6088 27.6658 23.543 27.5 23.543C27.3342 23.543 27.1753 23.6088 27.0581 23.726C26.9408 23.8432 26.875 24.0022 26.875 24.168V26.043H24.375V24.793C24.375 24.6272 24.3092 24.4682 24.1919 24.351C24.0747 24.2338 23.9158 24.168 23.75 24.168C23.5842 24.168 23.4253 24.2338 23.3081 24.351C23.1908 24.4682 23.125 24.6272 23.125 24.793V26.043H20.625V24.168C20.625 24.0022 20.5592 23.8432 20.4419 23.726C20.3247 23.6088 20.1658 23.543 20 23.543C19.8342 23.543 19.6753 23.6088 19.5581 23.726C19.4408 23.8432 19.375 24.0022 19.375 24.168V26.043H16.875V24.793C16.875 24.6272 16.8092 24.4682 16.6919 24.351C16.5747 24.2338 16.4158 24.168 16.25 24.168C16.0842 24.168 15.9253 24.2338 15.8081 24.351C15.6908 24.4682 15.625 24.6272 15.625 24.793V26.043H13.125V24.168C13.125 24.0022 13.0592 23.8432 12.9419 23.726C12.8247 23.6088 12.6658 23.543 12.5 23.543C12.3342 23.543 12.1753 23.6088 12.0581 23.726C11.9408 23.8432 11.875 24.0022 11.875 24.168V26.043H9.375V24.793C9.375 24.6272 9.30915 24.4682 9.19194 24.351C9.07473 24.2338 8.91576 24.168 8.75 24.168C8.58424 24.168 8.42527 24.2338 8.30806 24.351C8.19085 24.4682 8.125 24.6272 8.125 24.793V26.043H5.625V24.168C5.625 24.0022 5.55915 23.8432 5.44194 23.726C5.32473 23.6088 5.16576 23.543 5 23.543C4.83424 23.543 4.67527 23.6088 4.55806 23.726C4.44085 23.8432 4.375 24.0022 4.375 24.168V26.043H1.875C1.70929 26.0428 1.55042 25.9769 1.43324 25.8597C1.31607 25.7426 1.25017 25.5837 1.25 25.418V20.418C1.25017 20.2523 1.31607 20.0934 1.43324 19.9762C1.55042 19.859 1.70929 19.7931 1.875 19.793H3.17505C3.26191 19.7929 3.3478 19.7747 3.42726 19.7396C3.50671 19.7045 3.57798 19.6532 3.63654 19.589C3.6951 19.5249 3.73966 19.4492 3.76739 19.3669C3.79512 19.2846 3.80541 19.1974 3.79761 19.1109C3.76526 18.7581 3.75 18.3791 3.75 17.918C3.75 13.6082 5.46205 9.47495 8.50951 6.42748C11.557 3.38002 15.6902 1.66797 20 1.66797C24.3098 1.66797 28.443 3.38002 31.4905 6.42748C34.538 9.47495 36.25 13.6082 36.25 17.918C36.25 18.3791 36.2347 18.7581 36.2024 19.1109C36.1946 19.1974 36.2049 19.2846 36.2326 19.3669C36.2603 19.4492 36.3049 19.5249 36.3635 19.589C36.422 19.6532 36.4933 19.7045 36.5727 19.7396C36.6522 19.7747 36.7381 19.7929 36.825 19.793H38.125C38.2907 19.7931 38.4496 19.859 38.5668 19.9762C38.6839 20.0934 38.7498 20.2523 38.75 20.418V25.418Z" fill="white"/>
<path d="M20 7.91797C17.3488 7.921 14.807 8.97554 12.9323 10.8503C11.0576 12.725 10.003 15.2667 9.99999 17.918C9.99852 18.3646 10.0277 18.8108 10.0873 19.2534C10.1079 19.4029 10.1819 19.5399 10.2957 19.6391C10.4094 19.7383 10.5552 19.793 10.7062 19.793H29.2938C29.4447 19.793 29.5906 19.7383 29.7043 19.6391C29.8181 19.5399 29.8921 19.4029 29.9127 19.2534C29.9723 18.8108 30.0015 18.3646 30 17.918C29.997 15.2667 28.9424 12.725 27.0677 10.8503C25.193 8.97554 22.6512 7.921 20 7.91797ZM28.7292 18.543H11.2707C11.2567 18.3409 11.25 18.1322 11.25 17.918C11.25 15.5973 12.1719 13.3717 13.8128 11.7308C15.4538 10.0898 17.6793 9.16797 20 9.16797C22.3206 9.16797 24.5462 10.0898 26.1872 11.7308C27.8281 13.3717 28.75 15.5973 28.75 17.918C28.75 18.1322 28.7433 18.3409 28.7292 18.543Z" fill="white"/>
<path d="M35 37.293C35.3452 37.293 35.625 37.0131 35.625 36.668C35.625 36.3228 35.3452 36.043 35 36.043C34.6548 36.043 34.375 36.3228 34.375 36.668C34.375 37.0131 34.6548 37.293 35 37.293Z" fill="white"/>
</svg>
