<svg width="41" height="43" viewBox="0 0 41 43" fill="none" xmlns="http://www.w3.org/2000/svg">
<path d="M40.9909 16.3403C40.9879 13.1781 40.2395 10.0611 38.8064 7.2423C39.2795 6.8165 39.5809 6.23271 39.6541 5.60048C39.7273 4.96825 39.5672 4.33103 39.204 3.80841C38.8408 3.28579 38.2993 2.91368 37.6812 2.76191C37.0631 2.61015 36.4109 2.68916 35.8469 2.98412C35.2829 3.27908 34.846 3.76971 34.618 4.36395C34.3901 4.95819 34.3868 5.61519 34.6089 6.21165C34.8309 6.80812 35.263 7.30306 35.824 7.60359C36.385 7.90412 37.0365 7.98959 37.656 7.84396C39.7456 11.9609 40.2476 16.7027 39.0664 21.166C37.8852 25.6292 35.1034 29.502 31.2509 32.0464V27.9433C33.6034 25.8392 35.2615 23.0704 36.0059 20.0033C36.7503 16.9362 36.5459 13.7153 35.4197 10.767C34.2935 7.81856 32.2987 5.2816 29.6991 3.49178C27.0995 1.70197 24.0177 0.743652 20.8616 0.743652C17.7054 0.743652 14.6236 1.70197 12.024 3.49178C9.42445 5.2816 7.42958 7.81856 6.30339 10.767C5.1772 13.7153 4.97279 16.9362 5.7172 20.0033C6.46161 23.0704 8.11975 25.8392 10.4722 27.9433V37.119C9.95574 37.1195 9.46058 37.325 9.09538 37.6902C8.73018 38.0554 8.52477 38.5505 8.5242 39.067V41.6643C8.5242 41.8365 8.59261 42.0017 8.71439 42.1235C8.83616 42.2452 9.00132 42.3137 9.17354 42.3137H32.5496C32.7218 42.3137 32.887 42.2452 33.0087 42.1235C33.1305 42.0017 33.1989 41.8365 33.1989 41.6643V39.067C33.1983 38.5505 32.9929 38.0554 32.6277 37.6902C32.2625 37.325 31.7674 37.1195 31.2509 37.119V33.5751C34.2176 31.7804 36.6722 29.2519 38.3781 26.2333C40.0841 23.2147 40.9839 19.8076 40.9909 16.3403ZM37.0806 6.61455C36.8238 6.61455 36.5727 6.53838 36.3591 6.39568C36.1456 6.25298 35.9791 6.05016 35.8808 5.81286C35.7825 5.57556 35.7568 5.31444 35.8069 5.06252C35.857 4.8106 35.9807 4.5792 36.1623 4.39758C36.344 4.21596 36.5754 4.09227 36.8273 4.04216C37.0792 3.99205 37.3403 4.01777 37.5776 4.11606C37.8149 4.21436 38.0177 4.38081 38.1604 4.59438C38.3031 4.80794 38.3793 5.05903 38.3793 5.31588C38.379 5.6602 38.242 5.99032 37.9986 6.2338C37.7551 6.47727 37.425 6.6142 37.0806 6.61455ZM31.9002 39.067V41.015H9.82287V39.067C9.82309 38.8948 9.89158 38.7298 10.0133 38.6081C10.135 38.4864 10.3001 38.4179 10.4722 38.4176H31.2509C31.4231 38.4179 31.5881 38.4864 31.7098 38.6081C31.8315 38.7298 31.9 38.8948 31.9002 39.067ZM11.7709 37.119V28.9861C14.4172 30.8963 17.5979 31.9243 20.8616 31.9243C24.1252 31.9243 27.306 30.8963 29.9522 28.9861V33.1862C29.947 33.2331 29.947 33.2805 29.9522 33.3274V37.119H11.7709ZM20.8616 30.6256C18.0362 30.6256 15.2743 29.7878 12.925 28.2181C10.5758 26.6484 8.74483 24.4174 7.66361 21.807C6.58238 19.1967 6.29948 16.3244 6.85069 13.5533C7.40189 10.7823 8.76244 8.23685 10.7603 6.239C12.7581 4.24116 15.3035 2.88061 18.0746 2.32941C20.8457 1.77821 23.718 2.0611 26.3283 3.14233C28.9386 4.22355 31.1697 6.05454 32.7394 8.40376C34.3091 10.753 35.1469 13.5149 35.1469 16.3403C35.1426 20.1277 33.6362 23.7587 30.9581 26.4368C28.28 29.1149 24.649 30.6214 20.8616 30.6256Z" fill="#200D46"/>
<path d="M20.8615 4.65234C20.6893 4.65234 20.5241 4.72076 20.4023 4.84253C20.2806 4.9643 20.2122 5.12946 20.2122 5.30168C20.2122 5.47389 20.2806 5.63905 20.4023 5.76083C20.5241 5.8826 20.6893 5.95101 20.8615 5.95101C23.616 5.95416 26.2567 7.04976 28.2044 8.99746C30.1521 10.9452 31.2477 13.5859 31.2508 16.3404C31.2508 16.5126 31.3193 16.6777 31.441 16.7995C31.5628 16.9213 31.728 16.9897 31.9002 16.9897C32.0724 16.9897 32.2376 16.9213 32.3593 16.7995C32.4811 16.6777 32.5495 16.5126 32.5495 16.3404C32.546 13.2416 31.3135 10.2707 29.1223 8.07954C26.9311 5.88837 23.9603 4.65583 20.8615 4.65234Z" fill="#200D46"/>
<path d="M20.8616 26.7296C18.1071 26.7265 15.4664 25.6309 13.5187 23.6832C11.571 21.7355 10.4754 19.0947 10.4723 16.3403C10.4723 16.168 10.4038 16.0029 10.2821 15.8811C10.1603 15.7593 9.99513 15.6909 9.82292 15.6909C9.6507 15.6909 9.48554 15.7593 9.36377 15.8811C9.242 16.0029 9.17358 16.168 9.17358 16.3403C9.17707 19.439 10.4096 22.4099 12.6008 24.6011C14.792 26.7922 17.7628 28.0248 20.8616 28.0283C21.0338 28.0283 21.199 27.9599 21.3208 27.8381C21.4425 27.7163 21.5109 27.5512 21.5109 27.3789C21.5109 27.2067 21.4425 27.0416 21.3208 26.9198C21.199 26.798 21.0338 26.7296 20.8616 26.7296Z" fill="#200D46"/>
<path d="M20.8616 12.4443C20.091 12.4443 19.3378 12.6728 18.6971 13.1009C18.0564 13.529 17.557 14.1375 17.2621 14.8494C16.9673 15.5613 16.8901 16.3447 17.0404 17.1004C17.1908 17.8562 17.5618 18.5504 18.1067 19.0952C18.6516 19.6401 19.3458 20.0112 20.1015 20.1615C20.8573 20.3118 21.6406 20.2347 22.3525 19.9398C23.0644 19.6449 23.6729 19.1455 24.101 18.5048C24.5291 17.8642 24.7576 17.1109 24.7576 16.3403C24.7565 15.3074 24.3456 14.3171 23.6152 13.5867C22.8848 12.8563 21.8945 12.4455 20.8616 12.4443ZM20.8616 18.9377C20.3479 18.9377 19.8457 18.7853 19.4186 18.4999C18.9915 18.2146 18.6585 17.8089 18.462 17.3343C18.2654 16.8597 18.2139 16.3375 18.3142 15.8336C18.4144 15.3298 18.6617 14.867 19.025 14.5037C19.3882 14.1405 19.851 13.8931 20.3549 13.7929C20.8587 13.6927 21.3809 13.7441 21.8555 13.9407C22.3301 14.1373 22.7358 14.4702 23.0212 14.8973C23.3066 15.3245 23.4589 15.8266 23.4589 16.3403C23.4581 17.029 23.1842 17.6891 22.6973 18.1761C22.2104 18.663 21.5502 18.9369 20.8616 18.9377Z" fill="#200D46"/>
<path d="M23.4589 33.8721H18.2642C18.092 33.8721 17.9268 33.9405 17.8051 34.0623C17.6833 34.184 17.6149 34.3492 17.6149 34.5214C17.6149 34.6936 17.6833 34.8588 17.8051 34.9806C17.9268 35.1023 18.092 35.1707 18.2642 35.1707H23.4589C23.6311 35.1707 23.7963 35.1023 23.918 34.9806C24.0398 34.8588 24.1082 34.6936 24.1082 34.5214C24.1082 34.3492 24.0398 34.184 23.918 34.0623C23.7963 33.9405 23.6311 33.8721 23.4589 33.8721Z" fill="#200D46"/>
<path d="M5.73656 6.40992C5.79687 6.34964 5.84472 6.27807 5.87736 6.1993C5.91 6.12052 5.9268 6.03609 5.9268 5.95082C5.9268 5.86555 5.91 5.78112 5.87736 5.70235C5.84472 5.62357 5.79687 5.552 5.73656 5.49172L3.78856 3.54372C3.66654 3.42323 3.5018 3.35591 3.33031 3.35645C3.15883 3.35699 2.99452 3.42536 2.87326 3.54662C2.752 3.66788 2.68364 3.83219 2.68311 4.00368C2.68257 4.17517 2.7499 4.3399 2.8704 4.46192L4.8184 6.40992C4.87868 6.47023 4.95025 6.51807 5.02903 6.55071C5.1078 6.58336 5.19223 6.60016 5.2775 6.60016C5.36277 6.60016 5.4472 6.58336 5.52598 6.55071C5.60475 6.51807 5.67628 6.47023 5.73656 6.40992Z" fill="#200D46"/>
<path d="M7.8748 5.30128C8.04701 5.30128 8.21217 5.23287 8.33395 5.11109C8.45572 4.98932 8.52413 4.82416 8.52413 4.65195V2.05461C8.52413 1.88239 8.45572 1.71723 8.33395 1.59546C8.21217 1.47369 8.04701 1.40527 7.8748 1.40527C7.70258 1.40527 7.53742 1.47369 7.41565 1.59546C7.29388 1.71723 7.22546 1.88239 7.22546 2.05461V4.65195C7.22546 4.82416 7.29388 4.98932 7.41565 5.11109C7.53742 5.23287 7.70258 5.30128 7.8748 5.30128Z" fill="#200D46"/>
<path d="M3.97885 7.89893H1.38151C1.2093 7.89893 1.04414 7.96734 0.922363 8.08911C0.80059 8.21089 0.732178 8.37605 0.732178 8.54826C0.732178 8.72047 0.80059 8.88563 0.922363 9.00741C1.04414 9.12918 1.2093 9.19759 1.38151 9.19759H3.97885C4.15106 9.19759 4.31622 9.12918 4.438 9.00741C4.55977 8.88563 4.62818 8.72047 4.62818 8.54826C4.62818 8.37605 4.55977 8.21089 4.438 8.08911C4.31622 7.96734 4.15106 7.89893 3.97885 7.89893Z" fill="#200D46"/>
<path d="M26.7056 35.1707C27.0642 35.1707 27.3549 34.88 27.3549 34.5214C27.3549 34.1628 27.0642 33.8721 26.7056 33.8721C26.347 33.8721 26.0563 34.1628 26.0563 34.5214C26.0563 34.88 26.347 35.1707 26.7056 35.1707Z" fill="#200D46"/>
<path d="M15.0175 35.1707C15.3761 35.1707 15.6668 34.88 15.6668 34.5214C15.6668 34.1628 15.3761 33.8721 15.0175 33.8721C14.6589 33.8721 14.3682 34.1628 14.3682 34.5214C14.3682 34.88 14.6589 35.1707 15.0175 35.1707Z" fill="#200D46"/>
</svg>
